<?xml version="1.0" encoding="UTF-8"?>
<svg width="1604px" height="1030px" viewBox="0 0 1604 1030" version="1.1" xmlns="http://www.w3.org/2000/svg" xmlns:xlink="http://www.w3.org/1999/xlink">
    <title>background</title>
    <g id="页面-1" stroke="none" stroke-width="1" fill="none" fill-rule="evenodd">
        <g id="background" fill-rule="nonzero">
            <path d="M115.084914,212.437453 C111.024917,229.461964 109.095265,248.762938 119.924223,263.997977 C124.527143,270.533793 131.282185,275.417956 139.120427,277.877593 C147.054299,280.122833 155.419863,280.613255 163.581991,279.311624 C182.052151,276.86925 198.467401,267.686778 216.632384,264.121725 C224.648553,262.548471 233.155907,262.028481 240.872709,265.056267 C246.654723,267.324946 252.744769,271.886048 252.772518,278.392368 C252.801006,285.073638 246.721184,289.508078 240.674608,291.562276 C232.606385,294.303285 224.221532,293.242426 215.852843,292.896929 C206.839733,292.524838 197.649149,293.302741 190.161595,298.571062 C183.721723,303.368553 178.783068,309.759262 175.882566,317.048383 C172.119047,325.766215 170.591506,335.138969 168.185013,344.234702 C166.03399,352.412419 162.991213,360.352539 159.106509,367.92504 C151.484172,382.767354 140.798812,395.986987 127.691617,406.79068 C121.227292,412.100489 113.372761,417.509912 104.544263,417.996589 C97.7347702,418.371937 89.4573862,415.640874 86.8326561,409.058074 C84.8211538,403.194619 87.4653116,396.794784 93.1284835,393.819856 C98.9642566,391.009197 105.319718,395.01867 107.204275,400.521785 C108.206963,403.094853 107.858849,405.970525 106.267822,408.25757 C104.498348,410.775891 108.761042,413.130588 110.518685,410.629104 C114.599605,404.821152 112.466551,397.009937 107.468624,392.357586 C102.424897,387.449705 94.3490089,386.875245 88.5987659,391.015321 C82.6967539,395.304408 80.0203956,402.524961 81.7835128,409.402208 C83.882844,416.632913 91.3269282,421.232153 98.7607069,422.371606 C107.940624,423.778682 116.775308,420.335184 124.185473,415.360346 C131.620388,410.238186 138.380489,404.278379 144.319163,397.610181 C156.392789,384.357758 165.469083,368.868485 170.979488,352.11264 C176.398168,335.539957 176.79232,313.646861 192.8934,302.454546 C201.17853,296.695289 211.330362,297.334063 221.044524,297.862715 C229.619667,298.329454 237.984795,298.244564 245.851519,294.53938 C252.347204,291.479939 257.588065,285.832824 257.698069,278.638252 C257.80581,271.375298 252.403096,265.53527 246.037362,262.226281 C229.220592,253.48483 209.025808,260.534745 192.504664,266.374835 C175.890639,272.247786 156.921616,279.14081 139.265212,272.960502 C131.116202,269.938035 124.555409,263.954795 121.021264,256.322585 C116.74577,247.668609 116.137419,237.849414 117.12512,228.457662 C117.707321,223.485383 118.611369,218.552258 119.832081,213.686574 C120.534183,210.742503 115.78892,209.485535 115.084964,212.437485 L115.084914,212.437453 Z" id="路径" fill="#3F3D56"></path>
            <path d="M376.470106,411.223804 C352.619584,409.425498 380.762765,394.360991 382.646829,371.597114 C383.858304,356.865934 393.21453,343.871615 407.189045,337.511856 C421.16356,331.152098 437.63182,332.393773 450.38676,340.768882 C463.141699,349.14399 470.244186,363.379265 469.017216,378.109277 C467.133151,400.873139 400.320644,413.022048 376.470106,411.223804 Z" id="路径" fill="#F0F0F0"></path>
            <path d="M605.473479,269.503002 C581.622986,267.70469 563.815727,247.793133 565.69981,225.029247 C567.583957,202.265339 520.220614,187.037787 544.071152,188.836062 C567.921691,190.634337 653.954343,208.777502 652.070278,231.54141 C651.165485,242.473027 645.747892,252.613859 637.009308,259.73304 C628.270725,266.85222 616.926971,270.366581 605.473545,269.503002 L605.473479,269.503002 Z" id="路径" fill="#F0F0F0"></path>
            <path d="M657.676492,217.612755 C660.819663,223.836119 658.96663,231.026103 654.815556,236.399141 C650.094022,242.510598 642.584035,245.523255 634.880115,246.518928 C626.610917,247.476857 618.223947,246.817702 610.230311,244.581634 C602.519253,242.45755 594.516523,237.904765 592.925967,229.771171 C591.865881,224.35008 594.289129,218.564839 600.187392,217.062175 C604.998741,215.900871 610.096242,217.220817 613.632941,220.543764 C618.530554,225.40895 618.157768,233.217754 615.045087,238.868612 C611.384229,245.514751 604.059282,249.182283 596.528044,250.392561 C587.574059,251.831463 578.576851,249.821464 570.1535,246.961672 C560.998247,243.853396 552.117073,239.982864 543.146761,236.427428 C525.653209,229.49379 507.783098,222.980296 488.971036,220.218832 C460.233649,216.000439 426.128125,222.569143 408.536146,246.615815 C399.03968,259.596788 396.349392,275.876553 398.393323,291.36374 C400.548842,307.696335 408.057483,322.704832 417.999891,335.995481 C423.264336,342.908896 429.012753,349.474488 435.205775,355.647292 C439.328815,359.474038 440.621893,365.298636 438.479258,370.392521 C433.029268,383.173297 411.239201,379.100126 409.615711,365.925723 C408.877983,359.939565 412.377186,353.774386 416.749515,349.714057 C421.711665,345.284625 427.963405,342.39398 434.680967,341.423009 C448.820068,339.169398 463.766049,344.172961 474.57397,352.864026 C486.783961,362.682594 493.657814,377.60357 497.27845,392.128837 C501.400642,408.666233 501.610854,425.67541 502.002577,442.579854 C502.403408,459.878817 503.092464,477.382502 508.292251,494.079294 C512.520799,507.518088 519.048735,520.196949 527.611858,531.602731 C544.714057,554.582249 569.026598,571.778505 597.037919,580.70777 C603.813581,582.806589 610.761518,584.360077 617.808875,585.351945 C620.567839,585.742361 620.897237,581.618897 618.150023,581.230157 C587.430291,576.883239 559.180281,561.00822 538.957091,538.69412 C528.822148,527.561672 520.812345,514.8183 515.292002,501.043629 C508.697102,484.452888 507.024759,466.829949 506.486396,449.221686 C505.93653,431.238152 506.235963,413.091933 502.463682,395.376696 C499.128793,379.71561 492.587324,363.856833 480.472839,352.446139 C469.594626,342.103775 454.75607,336.460453 439.406571,336.82803 C425.353753,337.449356 410.32756,344.836404 406.151495,358.521478 C403.953045,364.864152 405.661182,371.847705 410.574793,376.605705 C416.546123,382.011802 425.193956,383.756178 432.946446,381.118347 C441.50476,377.585297 445.857736,368.430859 443.008927,359.956652 C441.853124,356.953425 439.995341,354.241137 437.576725,352.025855 C424.899295,339.103835 413.265459,324.643473 406.952516,307.817561 C401.06428,292.123647 399.85652,274.070337 406.64729,258.454375 C419.503359,228.890946 456.814068,220.007813 487.205927,224.139687 C507.095683,226.843796 525.928421,234.031038 544.352567,241.382767 C553.760715,245.136896 563.108228,249.309023 572.86563,252.182723 C581.601673,254.755628 590.976082,256.047648 599.976589,253.937472 C607.832236,252.095734 615.052176,247.73638 618.857556,240.762647 C622.314175,234.428048 622.910678,226.389947 618.799908,220.183983 C612.8566,211.211387 596.446093,209.193087 590.465977,219.270867 C586.498039,225.957775 588.447367,234.520503 593.658674,240.066345 C599.50129,246.283977 608.250642,248.823567 616.623712,250.10536 C632.445528,252.527405 651.928742,250.623957 660.393216,235.708509 C664.128145,229.647776 664.569223,222.23929 661.57769,215.813744 C661.033745,214.826881 659.768204,214.42903 658.716263,214.914191 C657.664321,215.399352 657.204506,216.592945 657.676607,217.612943 L657.676492,217.612755 Z" id="路径" fill="#3F3D56"></path>
            <path d="M1594.45756,337.610663 C1618.30815,335.812357 1590.16497,320.74785 1588.28084,297.983973 C1587.06202,283.258297 1577.70474,270.271817 1563.73378,263.916414 C1549.76282,257.561012 1533.3007,258.802223 1520.54856,267.172496 C1507.79641,275.542769 1500.69159,289.77046 1501.9104,304.496136 L1501.9104,304.496136 C1503.79453,327.259998 1570.60717,339.408907 1594.45756,337.610663 Z" id="路径" fill="#F0F0F0"></path>
            <path d="M1365.45425,195.889861 C1389.30477,194.091566 1407.11206,174.179984 1405.22796,151.416075 L1405.22796,151.416075 C1403.34387,128.652183 1450.70722,113.424631 1426.85663,115.222906 C1403.00604,117.021181 1316.97344,135.164346 1318.8575,157.928238 C1319.76228,168.859865 1325.17986,179.000713 1333.91845,186.119902 C1342.65704,193.239092 1354.0008,196.753452 1365.45424,195.889861 L1365.45425,195.889861 Z" id="路径" fill="#F0F0F0"></path>
            <path d="M1313.25124,143.999583 C1310.10805,150.222932 1311.9611,157.412931 1316.11218,162.785969 C1320.83376,168.897426 1328.34375,171.910115 1336.04765,172.905787 C1344.31686,173.863725 1352.70385,173.204582 1360.6975,170.968524 C1368.40856,168.844456 1376.41131,164.291656 1378.00185,156.158046 C1379.06193,150.737002 1376.63868,144.951745 1370.74054,143.449035 C1365.92921,142.28774 1360.83173,143.607672 1357.29504,146.930592 C1352.39737,151.795794 1352.77016,159.604582 1355.88289,165.25544 C1359.5438,171.901563 1366.8687,175.569111 1374.39993,176.779389 C1383.35392,178.218291 1392.35108,176.208308 1400.77443,173.348484 C1409.92957,170.240208 1418.81079,166.369661 1427.7811,162.814271 C1445.27462,155.880634 1463.14483,149.367108 1481.95684,146.60566 C1510.69426,142.387251 1544.79971,148.955971 1562.39178,173.002643 C1571.88843,185.983616 1574.57849,202.263365 1572.53466,217.750552 C1570.37923,234.083147 1562.87054,249.091645 1552.92799,262.382293 C1547.66351,269.295686 1541.9151,275.861277 1535.7221,282.034105 C1531.59916,285.860899 1530.30613,291.685451 1532.44872,296.779318 C1537.89876,309.56011 1559.68888,305.486922 1561.31245,292.312535 C1562.05023,286.326377 1558.55087,280.161198 1554.17855,276.10087 C1549.21644,271.671404 1542.9647,268.780753 1536.24714,267.809822 C1522.10794,265.55621 1507.16206,270.559774 1496.35414,279.250839 C1484.1442,289.069406 1477.2703,303.990383 1473.64966,318.515649 C1469.52747,335.052998 1469.31721,352.062223 1468.92558,368.966666 C1468.52475,386.265629 1467.83576,403.769314 1462.63591,420.466106 C1458.4074,433.904931 1451.87946,446.583813 1443.3163,457.98959 C1426.21408,480.969139 1401.90148,498.165399 1373.89011,507.09463 C1367.11446,509.193454 1360.16654,510.746942 1353.1192,511.738804 C1350.36024,512.12922 1350.03084,508.005757 1352.77807,507.617017 C1383.49783,503.270098 1411.7478,487.39508 1431.97094,465.080979 C1442.10588,453.948531 1450.11568,441.205159 1455.63603,427.430489 C1462.23097,410.839747 1463.90322,393.216808 1464.44163,375.608545 C1464.9915,357.625011 1464.69213,339.478792 1468.46439,321.763555 C1471.79928,306.102469 1478.34075,290.243693 1490.45524,278.832998 C1501.33341,268.490639 1516.17194,262.847316 1531.52141,263.214889 C1545.57427,263.836216 1560.60047,271.223263 1564.77648,284.908337 C1566.97497,291.250993 1565.26687,298.234549 1560.35328,302.992564 C1554.38196,308.398665 1545.73413,310.143042 1537.98165,307.505207 C1529.42331,303.97218 1525.07028,294.81775 1527.91904,286.343512 C1529.07484,283.340285 1530.93262,280.627996 1533.35124,278.412714 C1546.02872,265.490694 1557.66255,251.030333 1563.97558,234.204421 C1569.8639,218.510506 1571.07162,200.457197 1564.2808,184.841328 C1551.42483,155.277868 1514.11412,146.394782 1483.72218,150.526641 C1463.83236,153.230749 1444.99962,160.418038 1426.57554,167.769751 C1417.16733,171.523865 1407.81982,175.696007 1398.06246,178.569707 C1389.32642,181.142596 1379.95206,182.434617 1370.9515,180.324488 C1363.09586,178.482766 1355.87592,174.123395 1352.0706,167.149647 C1348.61392,160.815064 1348.01748,152.776932 1352.12828,146.570999 C1358.07161,137.598419 1374.4821,135.580087 1380.46228,145.657883 C1384.43022,152.344807 1382.48087,160.907487 1377.26952,166.453313 C1371.42697,172.67093 1362.6776,175.210521 1354.30443,176.492313 C1338.48266,178.914358 1318.9994,177.01091 1310.53489,162.095462 C1306.79997,156.034741 1306.35889,148.626264 1309.35042,142.200728 C1309.89446,141.214046 1311.15987,140.816334 1312.2117,141.301441 C1313.26353,141.786549 1313.72338,142.979955 1313.25149,143.999912 L1313.25124,143.999583 Z" id="路径" fill="#3F3D56"></path>
            <path d="M661.573768,679.786124 C619.975455,627.3754 636.472148,567.557566 612.101232,525.827247 C518.696847,365.889245 633.711477,380.624544 763.747033,411.727302 L764.057034,415.177722 C681.294304,427.368011 626.864668,468.02245 614.724239,526.715617 C605.288883,572.330078 622.603024,625.813095 663.477377,677.312441 L661.573768,679.786124 Z" id="路径" fill="#F0F0F0"></path>
            <path d="M1182.03185,639.225816 L1181.16286,635.936718 C1227.59574,615.843871 1223.6063,555.997922 1265.14914,542.331877 C1581.6082,438.227234 1269.2284,426.487316 1198.96448,371.420803 C1136.13072,322.177355 1067.65263,264.925048 980.624943,235.438537 L981.319086,232.081558 C1068.72695,261.697723 1146.64461,310.241078 1200.71585,368.769821 C1255.05994,427.591858 1278.87457,489.546259 1267.77203,543.220043 C1259.01695,585.545203 1229.36813,618.743038 1182.03185,639.225816 Z" id="路径" fill="#F0F0F0"></path>
            <ellipse id="椭圆形" fill="#E6E6E6" cx="783.149526" cy="277.496465" rx="14.773758" ry="9.80917028"></ellipse>
            <ellipse id="椭圆形" fill="#3F3D56" cx="876.930915" cy="299.567126" rx="14.7738072" ry="9.80917028"></ellipse>
            <ellipse id="椭圆形" fill="#FF6584" cx="745.893906" cy="347.386848" rx="14.773758" ry="9.80917028"></ellipse>
            <ellipse id="椭圆形" fill="#E6E6E6" cx="1172.40645" cy="420.955712" rx="14.7738072" ry="9.8092016"></ellipse>
            <ellipse id="椭圆形" fill="#3F3D56" cx="1266.18782" cy="443.026372" rx="14.7738072" ry="9.8092016"></ellipse>
            <ellipse id="椭圆形" fill="#FF6584" cx="1135.15093" cy="490.846126" rx="14.7738072" ry="9.8092016"></ellipse>
            <ellipse id="椭圆形" fill="#E6E6E6" cx="1144.14358" cy="197.79688" rx="14.7738072" ry="9.80918594"></ellipse>
            <ellipse id="椭圆形" fill="#3F3D56" cx="1237.92495" cy="219.867541" rx="14.7738072" ry="9.80917028"></ellipse>
            <ellipse id="椭圆形" fill="#FF6584" cx="1106.88794" cy="267.687279" rx="14.7738072" ry="9.80917028"></ellipse>
            <ellipse id="椭圆形" fill="#E6E6E6" cx="894.722406" cy="616.814969" rx="9.33699402" ry="6.19941679"></ellipse>
            <ellipse id="椭圆形" fill="#3F3D56" cx="953.992204" cy="630.763594" rx="9.33699402" ry="6.19941679"></ellipse>
            <ellipse id="椭圆形" fill="#FF6584" cx="871.176798" cy="660.985688" rx="9.33699402" ry="6.19941679"></ellipse>
            <ellipse id="椭圆形" fill="#E6E6E6" cx="874.167536" cy="408.369885" rx="9.33699402" ry="6.19941679"></ellipse>
            <ellipse id="椭圆形" fill="#3F3D56" cx="933.437335" cy="422.318557" rx="9.33699402" ry="6.19941679"></ellipse>
            <ellipse id="椭圆形" fill="#FF6584" cx="850.622027" cy="452.540604" rx="9.33699402" ry="6.19941679"></ellipse>
            <ellipse id="椭圆形" fill="#E6E6E6" cx="578.691951" cy="445.154325" rx="9.33704325" ry="6.19941679"></ellipse>
            <ellipse id="椭圆形" fill="#3F3D56" cx="637.961815" cy="459.10295" rx="9.33704325" ry="6.19941679"></ellipse>
            <ellipse id="椭圆形" fill="#FF6584" cx="555.146408" cy="489.325044" rx="9.33704325" ry="6.19941679"></ellipse>
            <ellipse id="椭圆形" fill="#E6E6E6" cx="1307.10345" cy="286.981299" rx="9.33699402" ry="6.19940113"></ellipse>
            <ellipse id="椭圆形" fill="#3F3D56" cx="1366.37336" cy="300.929956" rx="9.33699402" ry="6.19940113"></ellipse>
            <ellipse id="椭圆形" fill="#FF6584" cx="1283.55795" cy="331.152034" rx="9.33699402" ry="6.19940113"></ellipse>
            <path d="M147.498273,264.266665 C151.902559,264.855354 155.807438,267.27575 158.162188,270.876576 C160.516938,274.477402 161.079674,278.888772 159.698975,282.92368 L221.465227,399.996578 L195.153664,407.481625 L139.675839,291.916355 C132.57162,289.193461 128.723968,281.829417 130.719741,274.775223 C132.715513,267.721029 139.923872,263.206428 147.498486,264.26668 L147.498273,264.266665 Z" id="路径" fill="#FFB6B6"></path>
            <path d="M247.949751,463.192489 C247.949751,463.192489 255.605869,461.189099 248.033622,446.854694 C241.971473,435.378875 211.889205,361.59987 199.354805,348.361048 C202.424435,344.132317 202.103338,338.456162 198.574509,334.567465 L167.014799,356.202367 C166.012969,364.55041 169.988143,371.029933 173.443515,370.904853 L183.028595,392.238568 L207.500712,465.537662 L242.442522,464.734339 L247.949751,463.192489 Z" id="路径" fill="#00BFA6"></path>
            <polygon id="路径" fill="#FFB6B6" points="238.082829 503.023651 241.158063 530.247983 239.34804 565.945657 322.193919 556.551368 329.978823 503.023651 320.06062 503.117625"></polygon>
            <path d="M308.551352,415.092065 L277.372354,391.598509 L277.372354,391.598509 L261.00553,390.690264 L236.719962,405.53935 L216.360536,415.434444 L216.709297,467.101252 L240.117357,559.621271 L323.808352,556.488796 L334.824384,490.513505 C334.824384,490.513505 360.416023,457.706743 332.855808,438.917725 L308.551352,415.092065 Z" id="路径" fill="#00BFA6"></path>
            <polygon id="路径" fill="#FFB6B6" points="195.111606 997.287337 213.224962 997.287337 221.843494 930.606362 195.111606 930.606362"></polygon>
            <path d="M189.200445,985.446789 L218.137837,983.79834 L218.137837,995.631543 L245.649348,1013.7663 C248.438512,1015.60436 249.651272,1018.95999 248.642593,1022.04842 C247.633915,1025.13684 244.638194,1027.2402 241.248777,1027.2402 L206.797773,1027.2402 L200.859618,1015.53539 L198.541066,1027.2402 L185.551665,1027.2402 L189.200445,985.446789 Z" id="路径" fill="#2F2E41"></path>
            <polygon id="路径" fill="#FFB6B6" points="296.853599 997.287337 314.966956 997.287337 323.585487 930.606362 296.853599 930.606362"></polygon>
            <path d="M290.942406,985.446789 L319.879699,983.79834 L319.879699,995.631543 L347.391243,1013.7663 C350.180407,1015.60436 351.393167,1018.95999 350.384488,1022.04842 C349.37581,1025.13684 346.380089,1027.2402 342.990672,1027.2402 L308.539734,1027.2402 L302.601579,1015.53539 L300.283059,1027.2402 L287.293675,1027.2402 L290.942406,985.446789 Z" id="路径" fill="#2F2E41"></path>
            <path d="M187.296721,939.785106 L187.493641,939.785106 L190.977073,831.364978 C186.398554,822.935801 186.544865,812.87873 191.366827,804.574134 L191.865544,803.712531 L190.572436,797.991521 C188.911617,790.64125 189.673738,782.980583 192.754293,776.060005 L196.003998,674.924148 C184.394104,603.110301 239.723353,556.276101 239.723353,556.276101 L322.60732,556.276101 L340.401617,614.627547 C352.165158,724.014356 350.030677,830.608502 331.363597,933.880173 L331.872504,934.125759 C333.70491,934.72945 334.490851,937.152215 333.628374,939.537421 C332.765897,941.922628 330.581136,943.366699 328.748697,942.763008 L284.976436,941.309853 C283.14398,940.706273 282.357794,938.283398 283.220566,935.898191 C284.083042,933.513094 286.267804,932.069024 288.100259,932.67262 L291.076525,934.109408 L284.729137,829.488047 L285.433553,810.378311 L283.9824,788.698677 L277.272959,691.183866 L251.876565,811.099672 L225.935409,940.992001 C227.399964,942.257869 227.895702,944.254255 227.182166,946.01282 C226.468629,947.771386 224.693411,948.928382 222.717572,948.922633 L187.296721,948.922633 C184.653046,948.922633 182.509924,946.877129 182.509924,944.353898 C182.509924,941.830667 184.653046,939.785184 187.296721,939.785184 L187.296721,939.785106 Z" id="路径" fill="#2F2E41"></path>
            <path d="M309.980171,639.694419 C313.435548,637.022243 315.473349,633.026528 315.545243,628.782438 C315.617137,624.538347 313.71574,620.481845 310.352678,617.704451 L302.475501,487.574429 L273.428161,493.536248 L288.338483,619.855458 C283.723067,625.685074 284.40544,633.888159 289.926831,638.949629 C295.448222,644.011099 304.063398,644.331097 309.98022,639.694481 L309.980171,639.694419 Z" id="路径" fill="#FFB6B6"></path>
            <path d="M288.560642,419.818216 C288.560642,419.818216 296.202598,417.766258 297.46008,433.774641 C298.466784,446.590564 312.55741,524.608793 308.97153,542.120937 C313.886325,544.233103 316.678123,549.254287 315.755867,554.322894 L277.026809,551.320668 C271.657851,544.661389 271.562656,537.153412 274.590695,535.559782 L271.275875,512.563851 L252.637924,437.71816 L283.009041,421.207813 L288.560642,419.818216 Z" id="路径" fill="#00BFA6"></path>
            <ellipse id="椭圆形" fill="#FFB8B8" cx="263.416831" cy="350.62567" rx="39.1801197" ry="37.3950996"></ellipse>
            <path d="M178.986304,429.215404 C170.695217,426.410868 162.404136,423.601269 154.113061,420.786605 C155.54208,418.497987 157.362015,416.453556 159.497576,414.737892 C167.391556,408.446552 178.287533,407.30959 188.30994,405.187276 C198.348248,403.064868 209.244176,398.714018 212.913451,389.557593 C216.725412,380.037237 211.198032,369.75901 207.989549,360.056719 C203.494522,346.519059 203.589831,331.404793 209.609692,318.428034 C215.629454,305.451275 227.859678,294.930406 242.377178,291.837856 C256.89453,288.760388 273.302083,293.778251 282.228516,305.117791 C294.130568,301.709991 306.824938,307.319024 311.803371,318.185502 C313.884159,323.157851 313.947665,329.146029 310.850409,333.618106 C307.753153,338.090182 301.129766,340.379394 296.142357,337.893197 L299.033142,330.889392 C290.090776,333.784879 284.277517,349.217498 285.484571,358.161729 C286.675822,367.090847 292.139728,374.913229 297.683108,382.205034 C303.226488,389.496838 309.134941,396.864464 311.517476,405.581341 C314.948363,418.118458 310.310307,431.822828 301.733375,441.873794 C293.156328,451.924713 281.069084,458.746599 268.552948,463.764447 C259.183852,467.524025 249.44741,470.388053 239.486392,472.314535 C241.265236,469.009775 243.028359,465.704921 244.807285,462.400082 L223.698283,474.588539 C219.616247,474.967568 215.502408,475.194955 211.388667,475.27076 C199.41265,475.467824 187.198409,474.27017 176.238613,469.707142 C165.26336,465.12889 155.622026,456.836448 151.651184,446.057918 C150.37815,442.571585 149.775561,438.894404 149.872455,435.203566 C159.576814,433.202438 169.28143,431.206383 178.986304,429.215404 Z" id="路径" fill="#2F2E41"></path>
            <path d="M205.168457,101.844657 C205.168457,49.9441353 165.230524,0 116.29036,0 C67.3501967,0 27.9404683,49.9441666 27.9404683,101.844657 C27.9404683,147.417159 58.5327268,185.402996 99.1248448,193.990909 C96.8045489,200.383927 95.489149,207.069704 95.221464,213.830606 C95.221464,228.103222 103.602182,214.57449 116.29036,214.57449 C128.978538,214.57449 141.169461,228.103222 141.169461,213.830606 C140.880747,206.817012 139.478276,199.885879 137.009969,193.274042 C176.083555,183.477887 205.168457,146.275262 205.168457,101.844657 Z" id="路径" fill="#00BFA6"></path>
            <path d="M97.8501817,196.155527 L136.298399,196.979853 C139.467564,197.047796 139.466678,192.349054 136.298399,192.281142 L97.8501817,191.456815 C94.6810171,191.388841 94.6818868,196.087599 97.8501817,196.155527 Z" id="路径" fill="#3F3D56"></path>
            <path d="M490.70234,1027.49075 C489.443103,1031.05035 1.3585674,1030.71577 0,1027.16497 C1.25764591,1023.59667 489.342148,1023.93125 490.70234,1027.49075 Z" id="路径" fill="#CCCCCC"></path>
            <path d="M708.102597,652.571565 C685.34334,651.23284 662.569773,650.154862 639.790266,649.187193 C624.439861,648.535044 609.075408,648.000095 593.743415,647.010766 C588.36279,646.663469 582.980359,646.251454 577.628993,645.602719 C576.225938,645.406172 574.81773,645.185818 573.421223,644.91395 C573.62625,644.671043 573.828765,644.42613 574.036992,644.18565 C575.137545,642.914336 576.269638,641.668143 577.417353,640.435531 C583.489972,633.913814 589.92046,627.695524 596.258904,621.411358 C605.194969,612.551954 614.061603,603.629446 622.713217,594.515559 C633.962435,582.66541 644.850852,570.515504 655.378468,558.06584 C658.358295,554.536472 661.307171,550.983541 664.225099,547.407049 C666.266733,544.904829 668.298083,542.394965 670.319149,539.877459 C671.081459,538.927818 671.841532,537.976642 672.599368,537.023931 C672.952325,536.580373 673.304784,536.136428 673.656746,535.692097 C674.002587,535.255697 675.514095,533.365296 674.41625,534.71511 C675.065068,533.914596 675.713329,533.113601 676.361032,532.312127 C676.79943,531.768183 677.235488,531.22261 677.669204,530.675409 C678.664744,529.415653 679.643595,528.144072 680.605757,526.860666 C682.341005,524.544724 684.017357,522.190048 685.634814,519.79664 C688.698569,515.268809 691.517097,510.594039 694.079301,505.790737 C703.633334,487.824902 709.888251,467.963983 709.759055,447.680806 C709.83845,430.655294 704.91229,413.949935 695.540431,399.46329 C686.459543,385.747557 673.316812,374.913645 657.777906,368.334611 C648.735821,364.606842 639.176203,362.147342 629.39614,361.032548 C619.875937,360.037324 610.259647,360.248061 600.797335,361.659277 C579.077208,364.532774 558.248522,373.387605 540.030354,384.822545 C534.223151,388.467601 528.672354,392.450307 523.216308,396.556887 C520.910556,398.292277 519.611606,402.203438 519.611606,404.863096 C519.634952,407.974037 520.928075,410.953738 523.216308,413.16929 C525.529134,415.365535 528.65658,416.601947 531.919105,416.609874 C535.143162,416.431071 538.209586,415.218767 540.621787,413.16929 C540.874386,412.979242 541.129988,412.788537 541.384491,412.597253 C542.15261,412.039735 542.92487,411.487161 543.701271,410.939532 C545.339065,409.784923 546.994834,408.6541 548.668578,407.547062 C551.984021,405.355375 555.371351,403.267315 558.830568,401.282882 C564.792306,397.868405 570.978031,394.823549 577.349416,392.167179 C586.561977,388.5414 596.192593,385.971302 606.03946,384.510738 C613.335748,383.689422 620.70526,383.647516 628.011283,384.3858 C634.454715,385.305381 640.764131,386.937529 646.812219,389.24931 C649.575948,390.444278 652.263038,391.794544 654.859355,393.293005 C656.455293,394.218558 658.013148,395.200677 659.532922,396.239364 C659.745547,396.384663 660.219106,396.722783 660.624844,397.012536 C661.010052,397.31126 661.391956,397.613851 661.770557,397.920312 C664.540395,400.159964 667.132243,402.592748 669.524741,405.198615 C670.087932,405.812048 670.639806,406.434789 671.180362,407.066839 C671.26169,407.161956 671.34118,407.258421 671.421244,407.354588 C672.464603,408.701238 673.458147,410.081255 674.401875,411.494638 C676.322977,414.397854 678.028032,417.426286 679.504449,420.557574 C681.908645,426.318213 683.607592,432.324639 684.567508,438.457424 C685.339473,445.408782 685.29772,452.420583 684.443022,459.363117 C682.933744,468.655842 680.271477,477.744187 676.512348,486.436543 C672.134509,495.892513 666.791494,504.913946 660.56068,513.370197 C659.689857,514.559973 658.804187,515.739746 657.903672,516.909517 C657.482416,517.456896 657.057977,518.002077 656.630354,518.54506 C656.464613,518.755562 655.910317,519.44787 655.608832,519.825756 C654.943374,520.63774 654.289337,521.447923 653.639813,522.2686 C653.285849,522.715991 652.932192,523.163668 652.578841,523.611633 C651.760244,524.645683 650.939077,525.677891 650.115339,526.708256 C649.417936,527.580754 648.718656,528.451916 648.017501,529.321742 L647.991672,529.353865 C647.716531,529.693216 647.441023,530.032228 647.165149,530.370901 C645.686061,532.18617 644.198943,533.995508 642.703796,535.798915 C631.987607,548.724474 620.868153,561.332056 609.345435,573.62166 C600.384738,583.186857 591.185359,592.54279 581.875917,601.79853 C575.18602,608.449885 568.39356,615.017289 561.887751,621.834586 C557.283548,626.659113 552.336114,631.718889 549.1051,637.511053 C545.640506,643.721981 544.265529,651.197944 548.54716,657.439461 C552.628031,663.388186 559.755616,666.123557 566.78415,667.520781 C575.938508,669.141538 585.199587,670.154571 594.500769,670.552593 C607.870553,671.39775 621.26428,671.8981 634.649276,672.463073 C653.621532,673.263875 672.591491,674.10875 691.552227,675.131424 C697.06987,675.429009 702.586644,675.740205 708.102548,676.065011 C714.540748,676.443759 720.695007,670.391505 720.410047,664.318233 C720.258963,657.891381 714.83623,652.715732 708.102597,652.571565 L708.102597,652.571565 Z" id="路径" fill="#2F2E41"></path>
            <path d="M989.812229,421.228895 C989.47333,406.44289 988.207668,391.689491 986.022028,377.047807 C984.108886,363.589873 981.331533,350.256791 977.705653,337.123861 C974.100035,324.126587 969.454899,311.412512 963.811143,299.093574 C959.465134,289.2549 953.91364,279.942076 947.272638,271.349658 C940.686501,263.075103 933.119818,255.270293 923.395006,250.29818 C919.218106,248.079957 914.71177,246.481488 910.030834,245.557697 C909.386512,245.442782 908.748196,245.364204 908.113293,245.308571 C907.669895,245.236211 907.219178,245.177415 906.758943,245.138024 C892.949369,243.830397 879.011981,245.677093 866.097821,250.525597 C853.246784,255.490851 841.752763,263.190334 832.491538,273.037388 C823.386617,282.887717 816.027411,294.090517 810.704212,306.203883 C804.786751,319.423575 800.504075,333.25659 797.942894,347.422856 C795.188489,362.536332 793.895346,377.859453 794.079784,393.198859 C794.311918,408.664812 795.949375,424.08239 798.973738,439.278195 C801.617902,453.026884 805.700683,466.487676 811.160738,479.45833 C816.351486,492.268733 823.315751,504.35822 831.867958,515.404645 C840.447663,526.094213 850.436282,535.626143 862.725845,542.437238 C868.623048,545.704114 874.910124,548.282926 881.451918,550.118237 C887.176339,551.918061 893.027789,553.326496 898.961863,554.332855 C905.164758,555.342951 911.480409,555.565323 917.74442,554.994183 C924.451233,554.277521 931.00704,552.602514 937.192024,550.025328 C947.822766,545.628979 956.287881,537.924455 963.221466,529.2374 C970.168296,520.096965 975.533116,509.951651 979.111268,499.188484 C983.301966,486.836667 986.171197,474.111513 987.67504,461.207816 C989.392731,447.947812 990.106977,434.5869 989.812229,421.228895 L989.812229,421.228895 Z M964.618925,445.60786 C964.254547,450.972389 963.708346,456.321532 962.980321,461.65529 C961.472613,472.24023 958.942859,482.669471 955.423353,492.809874 C954.628994,495.036108 953.752602,497.234228 952.828341,499.413991 C950.205656,505.279734 946.917849,510.853719 943.023711,516.036277 L942.971117,516.103625 C942.579099,516.56792 942.189378,517.033766 941.784248,517.488179 C940.758721,518.638183 939.68949,519.750916 938.576553,520.826378 C937.457084,521.904993 936.292707,522.93871 935.083422,523.927527 C934.775127,524.178846 934.45843,524.42003 934.142029,524.661983 C933.988891,524.768095 933.836803,524.875633 933.682106,524.979647 C928.756998,528.516946 922.960223,530.783694 916.850534,531.561398 C912.632742,531.959472 908.38251,531.927392 904.171841,531.465701 C900.420281,530.881535 896.715502,530.05062 893.083982,528.978892 C889.350707,527.880302 885.596822,526.814353 881.954557,525.458962 C877.975903,523.753783 874.159565,521.722716 870.548377,519.388557 C869.576905,518.759243 868.628029,518.100593 867.683191,517.435913 C867.368398,517.194713 867.052391,516.954969 866.741093,516.709289 C864.757671,515.143825 862.847,513.49914 861.00908,511.775235 C859.168863,510.054034 857.400527,508.266493 855.704072,506.412612 C854.806248,505.434236 853.928023,504.439947 853.069398,503.429745 C852.802686,503.116278 852.540766,502.799381 852.277746,502.483064 C848.99495,498.291393 845.987401,493.909627 843.272382,489.362947 C840.286747,484.351438 837.594121,479.185998 835.206868,473.890342 C829.618184,460.768614 825.442606,447.138282 822.744622,433.209856 C822.007157,429.49161 821.380771,425.754568 820.825276,422.00769 C818.615933,405.648476 818.111105,389.120517 819.318198,372.666243 C819.641902,368.34523 820.110358,364.035792 820.687366,359.739149 C822.397366,347.935522 825.27314,336.312702 829.276278,325.025933 C830.284869,322.233677 831.392117,319.475471 832.567188,316.743437 C836.213898,308.624046 840.81037,300.924034 846.269094,293.789998 C846.335899,293.703964 846.437362,293.575674 846.548737,293.435339 L846.622057,293.347395 C847.392233,292.429768 848.180646,291.526326 848.987296,290.637069 C850.448409,289.027342 851.970021,287.470059 853.552131,285.965219 C855.18451,284.415897 856.881304,282.931872 858.642512,281.513143 C859.032233,281.199895 859.794839,280.633763 860.350793,280.223472 C860.836349,279.881813 861.316111,279.532605 861.81171,279.203084 C869.93031,273.580498 879.39857,269.994314 889.347425,268.7737 C894.544293,268.240424 899.781019,268.156472 904.993719,268.522867 C906.32409,268.819709 907.635189,269.190356 908.920337,269.632922 C911.52274,270.813559 914.005476,272.220824 916.336983,273.836827 C916.428338,273.908138 916.521186,273.977788 916.611818,274.049914 C917.321748,274.615847 918.017449,275.19748 918.698924,275.794811 C920.14412,277.05925 921.527007,278.38803 922.854116,279.764987 C924.163897,281.123886 925.41447,282.533812 926.621376,283.976458 C926.775531,284.172989 926.93077,284.368769 927.083006,284.566757 C927.720928,285.396424 928.345219,286.235431 928.955879,287.083778 C931.611306,290.79244 934.054864,294.635321 936.275871,298.59562 C938.675981,302.844821 940.84512,307.208358 942.85651,311.636768 C950.427585,329.510622 956.020256,348.090909 959.543346,367.074714 C960.571366,372.353293 961.450565,377.656948 962.223394,382.974918 C965.130892,403.730416 965.933121,424.705271 964.618925,445.60786 L964.618925,445.60786 Z" id="形状" fill="#2F2E41"></path>
            <path d="M1223.23793,652.571597 C1200.47868,651.232871 1177.70511,650.154893 1154.9256,649.187225 C1139.57518,648.535075 1124.21074,648.000111 1108.87875,647.010797 C1103.49813,646.6635 1098.11569,646.251486 1092.76433,645.60275 C1091.36119,645.406203 1089.95307,645.185849 1088.55656,644.913982 C1088.76158,644.671074 1088.9641,644.426146 1089.17233,644.185682 C1090.27288,642.914351 1091.40497,641.668175 1092.55269,640.435562 C1098.62531,633.913845 1105.05579,627.695555 1111.39424,621.411389 C1120.33029,612.551969 1129.19694,603.629477 1137.84855,594.515591 C1149.09777,582.665441 1159.98619,570.515535 1170.5138,558.065872 C1173.49363,554.536482 1176.44251,550.983546 1179.36043,547.407065 C1181.40207,544.904866 1183.43342,542.395007 1185.45448,539.87749 C1186.21679,538.927849 1186.97687,537.976673 1187.7347,537.023963 C1188.08766,536.580404 1188.44012,536.13646 1188.79208,535.692129 C1189.13792,535.255728 1190.64941,533.365327 1189.55159,534.715141 C1190.2004,533.914627 1190.84866,533.113633 1191.49637,532.312158 C1191.93477,531.768214 1192.37082,531.222642 1192.80454,530.67544 C1193.80008,529.415684 1194.77893,528.144109 1195.74109,526.860713 C1197.47633,524.544771 1199.15268,522.19009 1200.77015,519.796671 C1203.83391,515.268847 1206.65244,510.594083 1209.21464,505.790784 C1218.76867,487.824949 1225.02359,467.964014 1224.89439,447.680853 C1224.97378,430.655336 1220.04762,413.949973 1210.67577,399.463322 C1201.59487,385.747596 1188.45214,374.913691 1172.91324,368.334658 C1163.87116,364.606884 1154.31154,362.147384 1144.53148,361.032595 C1135.01127,360.037366 1125.39497,360.248098 1115.93265,361.659309 C1094.21254,364.532821 1073.38386,373.387636 1055.16569,384.822592 C1049.35849,388.467648 1043.80769,392.450339 1038.35164,396.556934 C1036.04589,398.292324 1034.74694,402.203485 1034.74694,404.863143 C1034.77029,407.974083 1036.06341,410.953783 1038.35164,413.169337 C1040.66447,415.365576 1043.79192,416.601987 1047.05444,416.609921 C1050.2785,416.43111 1053.34492,415.218808 1055.75712,413.169337 C1056.00972,412.979289 1056.26532,412.788584 1056.51983,412.597284 C1057.28795,412.039777 1058.06021,411.487203 1058.83661,410.939563 C1060.47439,409.784965 1062.13016,408.654141 1063.80391,407.547094 C1067.11938,405.355406 1070.50671,403.267346 1073.96592,401.282913 C1079.92765,397.86843 1086.11338,394.823574 1092.48477,392.16721 C1101.69733,388.541424 1111.32794,385.971326 1121.17481,384.51077 C1128.47109,383.689445 1135.8406,383.64754 1143.14662,384.385831 C1149.59005,385.305393 1155.89947,386.937542 1161.94755,389.249342 C1164.7113,390.444294 1167.39839,391.79456 1169.99471,393.293037 C1171.59064,394.218589 1173.1485,395.200703 1174.66827,396.239379 C1174.88091,396.384695 1175.35447,396.722814 1175.76021,397.012568 C1176.14542,397.311291 1176.52732,397.613883 1176.90593,397.920343 C1179.67576,400.159999 1182.26761,402.592783 1184.66011,405.198647 C1185.2233,405.812079 1185.77517,406.43482 1186.31573,407.06687 C1186.39706,407.161987 1186.47655,407.258436 1186.55661,407.354603 C1187.59997,408.701264 1188.59351,410.081281 1189.53724,411.494653 C1191.45834,414.397873 1193.16339,417.426305 1194.63982,420.55759 C1197.04408,426.318263 1198.74308,432.324731 1199.70304,438.457565 C1200.475,445.408923 1200.43324,452.420724 1199.57855,459.363258 C1198.06928,468.655979 1195.40701,477.744318 1191.64788,486.436668 C1187.27004,495.892643 1181.92703,504.914082 1175.69621,513.370338 C1174.82533,514.560114 1173.93966,515.739887 1173.0392,516.909658 C1172.61793,517.457047 1172.19349,518.002228 1171.76589,518.545201 C1171.60015,518.755703 1171.04585,519.448011 1170.74436,519.825897 C1170.07891,520.637881 1169.42487,521.448049 1168.77534,522.268741 C1168.42138,522.716132 1168.06772,523.163804 1167.71436,523.611758 C1166.89576,524.645819 1166.07459,525.678032 1165.25085,526.708397 C1164.55346,527.580885 1163.85419,528.452047 1163.15303,529.321882 L1163.1272,529.35399 C1162.85205,529.693342 1162.57654,530.032359 1162.30068,530.371042 C1160.82159,532.1863 1159.33447,533.995633 1157.83931,535.79904 C1147.12313,548.72462 1136.00369,561.332207 1124.48097,573.621801 C1115.52027,583.186998 1106.32089,592.542931 1097.01145,601.798671 C1090.32155,608.450026 1083.52909,615.01743 1077.02328,621.834727 C1072.41908,626.659239 1067.47165,631.719014 1064.24063,637.511194 C1060.77604,643.722122 1059.40106,651.198069 1063.68269,657.439602 C1067.76356,663.388327 1074.89115,666.123698 1081.91968,667.520922 C1091.07404,669.141679 1100.33512,670.154712 1109.6363,670.552734 C1123.00609,671.397891 1136.3998,671.898241 1149.78481,672.463199 C1168.75706,673.264 1187.72702,674.108875 1206.68776,675.131565 C1212.2054,675.42915 1217.72218,675.740346 1223.23808,676.065152 C1229.67628,676.4439 1235.83054,670.391646 1235.54558,664.318374 C1235.39455,657.891408 1229.97169,652.715666 1223.23793,652.571597 L1223.23793,652.571597 Z" id="路径" fill="#2F2E41"></path>
            <path d="M1479.45461,494.727779 C1456.69536,493.389053 1433.92179,492.311075 1411.1423,491.343407 C1395.79188,490.691257 1380.42743,490.156293 1365.09543,489.166979 C1359.71481,488.819682 1354.33239,488.407668 1348.98101,487.758932 C1347.57796,487.562401 1346.16975,487.342047 1344.77324,487.070179 C1344.97827,486.827256 1345.18078,486.582344 1345.38901,486.341879 C1346.48956,485.070549 1347.62165,483.824372 1348.76937,482.59176 C1354.84199,476.070042 1361.27248,469.851753 1367.61092,463.567587 C1376.54699,454.708167 1385.41364,445.785675 1394.06523,436.671788 C1405.31445,424.821639 1416.20287,412.671733 1426.73049,400.222069 C1429.71031,396.69268 1432.65919,393.139744 1435.57712,389.563263 C1437.61875,387.061053 1439.65011,384.551194 1441.67118,382.033688 C1442.43347,381.084026 1443.19354,380.13285 1443.95138,379.18016 C1444.30434,378.736581 1444.6568,378.292636 1445.00876,377.848326 C1445.35462,377.411926 1446.86611,375.521525 1445.76827,376.871339 C1446.41711,376.070814 1447.06537,375.26982 1447.71305,374.468356 C1448.15144,373.924412 1448.58749,373.378839 1449.02122,372.831638 C1450.01676,371.571882 1450.99561,370.300301 1451.95777,369.016895 C1453.69301,366.701015 1455.36937,364.34634 1456.98685,361.952869 C1460.05059,357.425041 1462.86912,352.750277 1465.43132,347.946982 C1474.98535,329.981147 1481.24027,310.120212 1481.11107,289.83705 C1481.19047,272.811533 1476.26431,256.106169 1466.89245,241.619519 C1457.81155,227.903794 1444.66882,217.069889 1429.12992,210.490856 C1420.08784,206.763081 1410.52822,204.303577 1400.74816,203.188777 C1391.22795,202.193554 1381.61166,202.40429 1372.14935,203.815506 C1350.42924,206.689019 1329.60054,215.543834 1311.38237,226.978774 C1305.57517,230.623846 1300.02437,234.606536 1294.56833,238.713131 C1292.26257,240.448522 1290.96362,244.359667 1290.96362,247.019325 C1290.98698,250.130269 1292.2801,253.109972 1294.56833,255.325534 C1296.88115,257.521772 1300.0086,258.758179 1303.27112,258.766103 C1306.49518,258.587308 1309.5616,257.375009 1311.9738,255.325534 C1312.2264,255.135487 1312.48202,254.944766 1312.73652,254.753482 C1313.50463,254.195985 1314.27689,253.643411 1315.05329,253.095761 C1316.69109,251.941162 1318.34686,250.810339 1320.02059,249.703291 C1323.33604,247.511604 1326.72337,245.423543 1330.18258,243.439111 C1336.14432,240.024625 1342.33004,236.979768 1348.70143,234.323408 C1357.91399,230.697622 1367.54461,228.127523 1377.39148,226.666967 C1384.68776,225.845635 1392.05728,225.80373 1399.3633,226.542029 C1405.80673,227.461595 1412.11615,229.093744 1418.16424,231.405539 C1420.92798,232.600498 1423.61507,233.950764 1426.21139,235.449234 C1427.80732,236.374786 1429.36517,237.356901 1430.88496,238.395577 C1431.09758,238.540892 1431.57114,238.879012 1431.97688,239.16875 C1432.36209,239.467494 1432.74399,239.770086 1433.12259,240.076525 C1435.89242,242.316182 1438.48427,244.748966 1440.87677,247.354829 C1441.43997,247.968261 1441.99184,248.591002 1442.53241,249.223052 C1442.61374,249.318169 1442.69323,249.414618 1442.77328,249.510785 C1443.81664,250.857436 1444.81018,252.237452 1445.75391,253.650835 C1447.67501,256.554057 1449.38007,259.582488 1450.8565,262.713772 C1453.26068,268.474414 1454.95962,274.480839 1455.91954,280.613621 C1456.69149,287.56498 1456.64974,294.576781 1455.79504,301.519315 C1454.28576,310.812034 1451.62349,319.900374 1447.86437,328.592724 C1443.48653,338.048697 1438.14352,347.07013 1431.9127,355.526379 C1431.04182,356.716176 1430.15615,357.895954 1429.25569,359.065714 C1428.83442,359.613093 1428.40998,360.158274 1427.98237,360.701257 C1427.81663,360.91176 1427.26233,361.604068 1426.96085,361.981954 C1426.29541,362.793938 1425.64137,363.604105 1424.99183,364.424798 C1424.63787,364.872178 1424.28421,365.31985 1423.93086,365.767815 C1423.11226,366.801876 1422.29109,367.834083 1421.46736,368.864438 C1420.76994,369.736936 1420.07067,370.608103 1419.36953,371.477939 L1419.34369,371.510047 C1419.06854,371.849398 1418.79303,372.188416 1418.51718,372.527099 C1417.03804,374.342347 1415.55092,376.151679 1414.05581,377.955097 C1403.33962,390.880666 1392.22017,403.488253 1380.69745,415.777857 C1371.73676,425.343039 1362.53739,434.698972 1353.22793,443.954728 C1346.53804,450.606067 1339.74558,457.173487 1333.23977,463.990784 C1328.63558,468.815295 1323.68813,473.875071 1320.45712,479.66725 C1316.99252,485.878195 1315.61755,493.354142 1319.89918,499.595675 C1323.98005,505.544384 1331.10763,508.279754 1338.13618,509.676979 C1347.29053,511.297752 1356.55161,512.310785 1365.85279,512.708791 C1379.22257,513.553963 1392.6163,514.054298 1406.00129,514.619271 C1424.97355,515.420072 1443.94351,516.264947 1462.90424,517.287638 C1468.42189,517.585223 1473.93866,517.896418 1479.45457,518.221224 C1485.89277,518.599972 1492.04702,512.547719 1491.76206,506.474447 C1491.61098,500.047594 1486.18825,494.871945 1479.45461,494.727779 L1479.45461,494.727779 Z" id="路径" fill="#2F2E41"></path>
        </g>
    </g>
</svg>