<?xml version="1.0" encoding="UTF-8"?>
<svg width="400px" height="284px" viewBox="0 0 400 284" version="1.1" xmlns="http://www.w3.org/2000/svg" xmlns:xlink="http://www.w3.org/1999/xlink">
    <title>1-auto_record</title>
    <g id="页面-1" stroke="none" stroke-width="1" fill="none" fill-rule="evenodd">
        <g id="1-auto_record" transform="translate(0.003441, 0.011379)" fill-rule="nonzero">
            <polygon id="路径" fill="#FFB6B6" points="41.3706562 276.36218 48.0094663 276.361697 51.1679788 250.752998 41.3692089 250.75348"></polygon>
            <path d="M41.1367034,283.288025 L61.5531022,283.287258 L61.5531022,283.029058 C61.5527905,278.640405 57.9951269,275.082796 53.6064739,275.082551 L53.6059915,275.082551 L49.8766745,272.253296 L42.9185926,275.082985 L41.1363753,275.083043 L41.1367034,283.288025 Z" id="路径" fill="#2F2E41"></path>
            <polygon id="路径" fill="#FFB6B6" points="52.0918449 245.378654 57.3185631 249.472611 75.5971212 231.260629 67.8829599 225.21811"></polygon>
            <path d="M47.6365621,250.686759 L63.7091934,263.276425 L63.8684216,263.073169 C66.5745469,259.618149 65.9677756,254.623612 62.5130979,251.91705 L62.512712,251.916746 L61.3216532,247.389729 L54.0991092,245.326435 L52.6960774,244.227444 L47.6365621,250.686759 Z" id="路径" fill="#2F2E41"></path>
            <path d="M83.3492407,128.696391 C83.3492407,128.696391 92.1608006,137.834305 88.2445249,159.047327 L91.5323304,195.369015 L92.380864,197.050403 C93.4180265,199.105547 93.0189152,201.594292 91.3911357,203.222069 L91.3911357,203.222069 L90.6921719,205.389628 L90.0394641,209.632229 L65.7260775,246.183898 L56.4249844,236.393272 L71.4372778,202.126084 L67.3578663,193.314515 L57.8935938,162.637225 L51.3665111,218.770142 L52.6719267,267.070562 L40.1792307,267.070562 L32.4379661,213.222122 L24.279114,137.507951 L28.5230027,128.696391 L83.3492407,128.696391 Z" id="路径" fill="#2F2E41"></path>
            <path d="M26.3138,144.397696 L26.2247664,144.272808 C21.4696541,137.615549 28.6213474,121.618327 29.6999936,119.299313 L29.6999936,119.299313 C27.0587936,118.442203 25.390488,115.839142 25.7149032,113.081366 L26.1798853,109.128763 L26.6645701,105.251786 L23.1922712,101.779482 L23.1825115,101.69289 L21.1842591,84.2082005 L18.278857,72.5950492 C16.0499379,63.6563193 18.8164314,54.2104036 25.5154398,47.8864602 L32.231242,46.820063 L40.393037,38.9560714 L53.5548725,38.9560714 L58.0677678,43.267781 C66.4923364,44.7453106 67.9396462,44.262874 75.1761953,52.9467329 L71.8879412,79.9450722 L71.0676349,83.6592166 L71.070076,88.6968196 L73.155553,91.0145271 C74.6787707,92.707362 75.3130079,95.0201542 74.8663793,97.2531802 L74.5921238,98.624405 L74.5921238,98.624405 C76.7429902,99.5461628 78.795401,115.92724 79.2857495,118.21534 L80.0182234,121.63324 C80.6448699,122.460136 84.7811415,127.975351 84.7811415,129.483057 C84.7811415,129.709421 84.6140544,129.928226 84.2554786,130.170964 C81.4366594,132.07969 70.1984819,145.61979 63.3029094,142.860494 C55.9577783,139.923613 26.7597114,144.329421 26.465536,144.374303 L26.3138,144.397696 Z" id="路径" fill="#3F3D56"></path>
            <path d="M24.5454769,113.003057 C24.5454769,113.003057 27.9254278,93.9011866 24.5203323,86.7173099 L11.0121073,87.6821831 L13.0678662,114.933353 L24.8765587,145.190561 C24.3780706,147.768787 25.8132901,150.330289 28.2724368,151.251341 C30.7315834,152.172393 33.4963945,151.183976 34.8142663,148.912643 C36.132138,146.64131 35.6181491,143.750468 33.5981152,142.072612 L24.5454769,113.003057 Z" id="路径" fill="#FFB6B6"></path>
            <path d="M11.0121073,76.5861411 L11.8481265,67.4819786 C12.4836339,60.5613958 15.852656,54.1799464 21.2087331,49.7515408 L21.2087331,49.7515408 C24.5699007,46.9930987 29.2052924,46.3812035 33.1671112,48.1729745 L33.1671112,48.1729745 C38.6132753,50.6803315 41.1866405,56.9776637 39.0551052,62.5815999 C35.9330071,70.769731 37.060389,79.4288988 30.9726083,80.4845763 L31.6340048,83.6312353 L25.6482353,103.165282 L8.59989052,101.190413 L11.0121073,76.5861411 Z" id="路径" fill="#3F3D56"></path>
            <path d="M100.92718,103.949415 C100.92718,103.949415 91.0326612,87.2639733 83.7664278,84.0383587 L74.1549638,93.5789334 L93.4847079,112.897663 L122.16856,128.135134 C123.471988,130.414786 126.230468,131.420734 128.695411,130.515311 C131.160354,129.609889 132.611805,127.05755 132.129694,124.476212 C131.647584,121.894874 129.372726,120.038489 126.747144,120.083812 L100.92718,103.949415 Z" id="路径" fill="#FFB6B6"></path>
            <path d="M66.9188972,85.1669275 L61.6156115,77.71979 C57.5842876,72.058802 55.9768493,65.023934 57.1494498,58.1738709 L57.1494498,58.1738709 C57.8987211,53.8907577 61.0138178,50.4040025 65.1857726,49.1787438 L65.1857726,49.1787438 C70.9496755,47.528002 77.0072307,50.6238985 79.0457856,56.2623219 C82.0186033,64.5058272 92.8620994,78.0542102 88.9353356,82.8245386 L91.4887712,84.77873 L95.3476803,95.7721626 L81.1353391,105.392687 L66.9188972,85.1669275 Z" id="路径" fill="#3F3D56"></path>
            <circle id="椭圆形" fill="#FFB6B6" cx="46.0858999" cy="20.539903" r="14.6171827"></circle>
            <path d="M35.4778474,30.842824 C35.3502574,30.7309228 35.2298316,30.6114377 35.1051314,30.4964345 C35.1006592,30.5082301 35.0999741,30.5203199 35.0952125,30.5320817 L35.4778474,30.842824 Z" id="路径" fill="#2F2E41"></path>
            <path d="M58.0646127,5.10412666 C57.3383505,3.93500202 56.3324028,2.96511744 55.137554,2.28200277 C54.3208883,1.88590112 53.4627112,1.58183464 52.5788405,1.3754079 L50.265557,0.744245732 C49.0802932,0.377484479 47.8608692,0.131952889 46.6260263,0.0114245265 C43.1304558,-0.161015918 39.8302561,1.62938647 38.0689855,4.65373349 C37.3700892,5.89337847 36.8094738,7.43813566 35.4605858,7.89167432 C34.3729325,8.25739021 33.1862446,7.7415304 32.0431448,7.84160705 C30.6827776,8.03873659 29.5106737,8.90210422 28.9190156,10.1428297 C28.3493176,11.3722226 28.0689372,12.7158225 28.0994041,14.070457 C28.0085735,20.2897699 30.5536619,26.2571076 35.1051458,30.4964586 C35.4824113,29.502012 34.8610329,28.428359 34.3698208,27.477076 C33.8727905,26.5145137 33.5656376,25.1725584 34.3980819,24.4793018 C35.3243602,23.7078857 36.8084028,24.4559374 37.9038667,23.9528815 C38.6157212,23.5439893 39.0751742,22.8054513 39.1273742,21.9861804 C39.233409,21.186918 39.1227042,20.3744706 39.1728728,19.5697664 C39.2732996,17.9586067 40.013363,16.4543731 41.2284666,15.3916198 C42.4435702,14.3288666 44.0329605,13.7957147 45.6431437,13.9107416 C48.1365932,14.0888523 50.5564422,15.7926978 52.9559757,15.0917464 C54.0823253,14.7627246 55.0429965,13.9249879 56.2079168,13.7840778 C57.4980488,13.6280048 58.7117001,14.3561029 59.8071641,15.0552211 C60.6115334,11.6394631 59.9818051,8.04330785 58.0646127,5.10412666 Z" id="路径" fill="#2F2E41"></path>
            <path d="M108.739242,275.075676 L105.019656,269.098286 L104.276704,272.513976 C104.146446,273.112197 104.016188,273.720068 103.895579,274.323113 C102.839043,273.420904 101.714965,272.586298 100.615102,271.785497 C97.2380454,269.33468 93.8625603,266.880686 90.4886464,264.423514 L91.5451536,270.550435 C92.1964912,274.323123 92.8767992,278.172957 94.4880651,281.622355 C94.6666197,282.013153 94.8595413,282.399126 95.0670807,282.775441 L110.765568,282.775441 C110.891839,282.425867 110.979204,282.063443 111.026084,281.69473 C111.029995,281.670818 111.031572,281.646582 111.030792,281.622365 C111.276984,279.282509 109.983968,277.077797 108.739242,275.075676 Z" id="路径" fill="#F0F0F0"></path>
            <path d="M380.873439,268.620201 L374.126597,257.777921 L372.778934,263.973565 C372.542647,265.058656 372.306359,266.161265 372.087603,267.255099 C370.171225,265.618592 368.132216,264.10472 366.13723,262.652171 C360.011658,258.206678 353.888938,253.755429 347.769069,249.298422 L349.685447,260.411914 C350.866891,267.255108 352.100891,274.238238 355.023526,280.494983 C355.34741,281.203851 355.697355,281.903958 356.07379,282.586548 L384.548969,282.586548 C384.778018,281.952463 384.936502,281.295069 385.02155,280.626268 C385.028649,280.582887 385.03151,280.538918 385.030094,280.494983 C385.476613,276.250887 383.131218,272.25181 380.873439,268.620201 Z" id="路径" fill="#F0F0F0"></path>
            <path d="M399.427232,283.362818 L0.572767731,283.51109 C0.256168699,283.510172 0,283.25326 0,282.93666 C0,282.620059 0.256168699,282.363147 0.572767731,282.36223 L399.427232,282.213957 C399.743831,282.214875 400,282.471787 400,282.788387 C400,283.104988 399.743831,283.3619 399.427232,283.362818 Z" id="路径" fill="#CACACA"></path>
            <path d="M125.141388,114.957914 L125.141388,253.42876 C125.144295,257.10307 128.122179,260.080965 131.79649,260.083886 L336.996076,260.083886 C340.670399,260.080994 343.648305,257.103088 343.651197,253.428765 L343.651197,114.957914 C343.642478,111.287201 340.666796,108.314809 336.996076,108.31015 L131.79649,108.31015 C128.125784,108.314835 125.150123,111.287215 125.141388,114.957914 L125.141388,114.957914 Z" id="路径" fill="#3F3D56"></path>
            <path d="M129.95527,116.680816 L129.95527,251.720611 C129.958664,253.683563 131.549106,255.274005 133.512058,255.277399 L335.287932,255.277399 C337.250892,255.274021 338.841344,253.683571 338.844725,251.720611 L338.844725,116.680816 C338.844725,114.71533 337.253412,113.120892 335.287932,113.116622 L133.512058,113.116622 C131.546585,113.120908 129.95527,114.715338 129.95527,116.680816 Z" id="路径" fill="#FFFFFF"></path>
            <path d="M120.849844,280.434268 C121.611444,281.389208 122.768443,281.942758 123.989879,281.936627 L343.710373,281.936627 C344.927278,281.935052 346.078772,281.385499 346.845353,280.440399 C347.611935,279.4953 347.912059,278.25519 347.66245,277.064159 L344.251705,260.863301 C343.964494,259.520937 343.016923,258.415402 341.734293,257.926227 C341.277256,257.746914 340.790587,257.655104 340.299633,257.655578 L127.387072,257.655578 C126.896117,257.655096 126.409447,257.746906 125.952412,257.926227 C124.669743,258.415346 123.72215,259.520907 123.435,260.863301 L120.024255,277.064159 C119.778476,278.254525 120.081696,279.492288 120.849844,280.434268 Z" id="路径" fill="#2F2E41"></path>
            <rect id="矩形" fill="#3F3D56" transform="translate(335.355434, 262.603524) rotate(-180.000000) translate(-335.355434, -262.603524) " x="331.971788" y="260.573337" width="6.76729266" height="4.06037463" rx="0.48819"></rect>
            <rect id="矩形" fill="#3F3D56" transform="translate(321.820849, 262.603524) rotate(-180.000000) translate(-321.820849, -262.603524) " x="318.437203" y="260.573337" width="6.76729266" height="4.06037463" rx="0.48819"></rect>
            <rect id="矩形" fill="#3F3D56" transform="translate(308.286264, 262.603524) rotate(-180.000000) translate(-308.286264, -262.603524) " x="304.902617" y="260.573337" width="6.76729266" height="4.06037463" rx="0.48819"></rect>
            <rect id="矩形" fill="#3F3D56" transform="translate(294.751678, 262.603524) rotate(-180.000000) translate(-294.751678, -262.603524) " x="291.368032" y="260.573337" width="6.76729266" height="4.06037463" rx="0.48819"></rect>
            <rect id="矩形" fill="#3F3D56" transform="translate(281.217093, 262.603524) rotate(-180.000000) translate(-281.217093, -262.603524) " x="277.833447" y="260.573337" width="6.76729266" height="4.06037463" rx="0.48819"></rect>
            <rect id="矩形" fill="#3F3D56" transform="translate(267.682508, 262.603524) rotate(-180.000000) translate(-267.682508, -262.603524) " x="264.298861" y="260.573337" width="6.76729266" height="4.06037463" rx="0.48819"></rect>
            <rect id="矩形" fill="#3F3D56" transform="translate(254.147922, 262.603524) rotate(-180.000000) translate(-254.147922, -262.603524) " x="250.764276" y="260.573337" width="6.76729266" height="4.06037463" rx="0.48819"></rect>
            <rect id="矩形" fill="#3F3D56" transform="translate(240.613337, 262.603524) rotate(-180.000000) translate(-240.613337, -262.603524) " x="237.229691" y="260.573337" width="6.76729266" height="4.06037463" rx="0.48819"></rect>
            <rect id="矩形" fill="#3F3D56" transform="translate(227.078752, 262.603524) rotate(-180.000000) translate(-227.078752, -262.603524) " x="223.695106" y="260.573337" width="6.76729266" height="4.06037463" rx="0.48819"></rect>
            <rect id="矩形" fill="#3F3D56" transform="translate(213.544167, 262.603524) rotate(-180.000000) translate(-213.544167, -262.603524) " x="210.16052" y="260.573337" width="6.76729266" height="4.06037463" rx="0.48819"></rect>
            <rect id="矩形" fill="#3F3D56" transform="translate(200.009581, 262.603524) rotate(-180.000000) translate(-200.009581, -262.603524) " x="196.625935" y="260.573337" width="6.76729266" height="4.06037463" rx="0.48819"></rect>
            <rect id="矩形" fill="#3F3D56" transform="translate(186.474996, 262.603524) rotate(-180.000000) translate(-186.474996, -262.603524) " x="183.09135" y="260.573337" width="6.76729266" height="4.06037463" rx="0.48819"></rect>
            <rect id="矩形" fill="#3F3D56" transform="translate(172.940411, 262.603524) rotate(-180.000000) translate(-172.940411, -262.603524) " x="169.556764" y="260.573337" width="6.76729266" height="4.06037463" rx="0.48819"></rect>
            <rect id="矩形" fill="#3F3D56" transform="translate(159.405825, 262.603524) rotate(-180.000000) translate(-159.405825, -262.603524) " x="156.022179" y="260.573337" width="6.76729266" height="4.06037463" rx="0.48819"></rect>
            <rect id="矩形" fill="#3F3D56" transform="translate(145.871240, 262.603524) rotate(-180.000000) translate(-145.871240, -262.603524) " x="142.487594" y="260.573337" width="6.76729266" height="4.06037463" rx="0.48819"></rect>
            <rect id="矩形" fill="#3F3D56" transform="translate(132.336650, 262.603524) rotate(-180.000000) translate(-132.336650, -262.603524) " x="128.953003" y="260.573337" width="6.76729266" height="4.06037463" rx="0.48819"></rect>
            <rect id="矩形" fill="#3F3D56" transform="translate(335.515362, 269.370817) rotate(-180.000000) translate(-335.515362, -269.370817) " x="332.131716" y="267.34063" width="6.76729266" height="4.06037463" rx="0.48819"></rect>
            <rect id="矩形" fill="#3F3D56" transform="translate(321.980777, 269.370817) rotate(-180.000000) translate(-321.980777, -269.370817) " x="318.59713" y="267.34063" width="6.76729266" height="4.06037463" rx="0.48819"></rect>
            <rect id="矩形" fill="#3F3D56" transform="translate(308.446192, 269.370817) rotate(-180.000000) translate(-308.446192, -269.370817) " x="305.062545" y="267.34063" width="6.76729266" height="4.06037463" rx="0.48819"></rect>
            <rect id="矩形" fill="#3F3D56" transform="translate(294.911606, 269.370817) rotate(-180.000000) translate(-294.911606, -269.370817) " x="291.52796" y="267.34063" width="6.76729266" height="4.06037463" rx="0.48819"></rect>
            <rect id="矩形" fill="#3F3D56" transform="translate(281.377021, 269.370817) rotate(-180.000000) translate(-281.377021, -269.370817) " x="277.993375" y="267.34063" width="6.76729266" height="4.06037463" rx="0.48819"></rect>
            <rect id="矩形" fill="#3F3D56" transform="translate(267.842436, 269.370817) rotate(-180.000000) translate(-267.842436, -269.370817) " x="264.458789" y="267.34063" width="6.76729266" height="4.06037463" rx="0.48819"></rect>
            <rect id="矩形" fill="#3F3D56" transform="translate(254.307850, 269.370817) rotate(-180.000000) translate(-254.307850, -269.370817) " x="250.924204" y="267.34063" width="6.76729266" height="4.06037463" rx="0.48819"></rect>
            <rect id="矩形" fill="#3F3D56" transform="translate(240.773265, 269.370817) rotate(-180.000000) translate(-240.773265, -269.370817) " x="237.389619" y="267.34063" width="6.76729266" height="4.06037463" rx="0.48819"></rect>
            <rect id="矩形" fill="#3F3D56" transform="translate(227.238680, 269.370817) rotate(-180.000000) translate(-227.238680, -269.370817) " x="223.855033" y="267.34063" width="6.76729266" height="4.06037463" rx="0.48819"></rect>
            <rect id="矩形" fill="#3F3D56" transform="translate(213.704094, 269.370817) rotate(-180.000000) translate(-213.704094, -269.370817) " x="210.320448" y="267.34063" width="6.76729266" height="4.06037463" rx="0.48819"></rect>
            <rect id="矩形" fill="#3F3D56" transform="translate(200.169509, 269.370817) rotate(-180.000000) translate(-200.169509, -269.370817) " x="196.785863" y="267.34063" width="6.76729266" height="4.06037463" rx="0.48819"></rect>
            <rect id="矩形" fill="#3F3D56" transform="translate(186.634924, 269.370817) rotate(-180.000000) translate(-186.634924, -269.370817) " x="183.251277" y="267.34063" width="6.76729266" height="4.06037463" rx="0.48819"></rect>
            <rect id="矩形" fill="#3F3D56" transform="translate(173.100338, 269.370817) rotate(-180.000000) translate(-173.100338, -269.370817) " x="169.716692" y="267.34063" width="6.76729266" height="4.06037463" rx="0.48819"></rect>
            <rect id="矩形" fill="#3F3D56" transform="translate(159.565753, 269.370817) rotate(-180.000000) translate(-159.565753, -269.370817) " x="156.182107" y="267.34063" width="6.76729266" height="4.06037463" rx="0.48819"></rect>
            <rect id="矩形" fill="#3F3D56" transform="translate(146.031168, 269.370817) rotate(-180.000000) translate(-146.031168, -269.370817) " x="142.647521" y="267.34063" width="6.76729266" height="4.06037463" rx="0.48819"></rect>
            <rect id="矩形" fill="#3F3D56" transform="translate(132.496582, 269.370817) rotate(-180.000000) translate(-132.496582, -269.370817) " x="129.112936" y="267.34063" width="6.76729266" height="4.06037463" rx="0.48819"></rect>
            <rect id="矩形" fill="#3F3D56" transform="translate(231.908294, 277.491566) rotate(-180.000000) translate(-231.908294, -277.491566) " x="204.839124" y="275.461379" width="54.1383413" height="4.06037463" rx="0.48819"></rect>
            <path d="M280.366582,194.918206 C280.320156,218.545862 262.255349,238.235111 238.719003,240.310845 C215.182656,242.386579 193.950602,226.163027 189.769499,202.908207 C185.588395,179.653387 199.839576,157.050122 222.624928,150.79744 C245.41028,144.544758 269.20208,156.708393 277.475807,178.840129 C277.575372,179.108252 277.672448,179.376371 277.766899,179.647076 L277.766899,179.649633 C278.188298,180.839643 278.559445,182.051797 278.880339,183.286095 C279.870299,187.084118 280.369771,190.993288 280.366582,194.918206 Z" id="路径" fill="#3F3D56"></path>
            <path d="M229.370876,163.905121 C225.184836,161.641429 220.188189,161.437001 215.83122,163.351173 C213.938139,164.17505 211.944783,165.65298 211.313259,168.321853 C213.867423,166.814479 217.17373,169.196124 217.830978,173.016786 L217.677563,173.059086 C217.330425,175.70542 218.105368,178.58657 219.605683,180.227496 C219.831591,178.72808 220.720351,177.409967 222.025701,176.638384 C223.128025,175.913765 224.347495,175.387364 225.188855,174.141799 C226.186302,172.665172 226.439591,170.507088 226.835835,168.538394 C227.23208,166.569701 227.983837,164.453695 229.370876,163.905121 Z" id="路径" fill="#00BFA6"></path>
            <path d="M215.073592,186.424601 C214.36621,187.486927 213.421357,188.153461 212.573543,188.983416 C211.594784,189.873718 210.952671,191.074067 210.755311,192.38237 C210.648042,193.30681 210.814038,194.246553 210.791036,195.181245 C210.768091,196.115875 210.456514,197.167997 209.820648,197.400396 C208.817031,197.763 208.050921,195.898817 207.019245,195.768578 C206.199489,195.666422 205.461496,196.956052 205.698975,198.074572 C205.936455,199.193092 207.052446,199.688496 207.693426,198.958145 C208.273122,199.931085 207.864503,201.695732 206.993715,201.994495 C206.901757,202.607387 206.809858,203.217727 206.720453,203.830591 C204.519167,202.290701 202.294903,200.725315 200.423053,198.470378 C198.341223,195.983782 197.049988,192.931781 196.715079,189.706101 C196.472491,187.11409 196.832538,184.149247 195.642541,182.154825 C194.689984,180.558766 193.05561,180.206321 191.584675,180.305949 C191.316556,180.3238 191.04588,180.354458 190.777732,180.387655 C191.645199,177.782261 192.746932,175.260817 194.069421,172.854243 C194.368711,172.725772 194.646813,172.552704 194.894262,172.340931 C196.26307,171.179016 196.870853,168.827036 197.981702,167.200332 C198.053216,167.095624 198.127273,166.993481 198.203874,166.893903 C199.340287,165.410189 200.862283,164.646636 202.333218,163.936697 C205.589182,162.355974 208.939603,160.754801 212.376901,160.974416 L211.398848,161.068901 C210.257352,164.266137 209.114993,167.463373 207.971773,170.660609 C207.798096,171.1509 207.622746,171.642062 207.445724,172.134096 C206.797078,173.952298 206.128006,175.888022 206.227605,177.923335 C206.286337,179.128674 206.705116,180.415747 207.501899,180.829446 C208.245006,181.212501 209.057091,180.742608 209.774658,180.277838 C210.078564,180.083754 210.379913,179.889669 210.68379,179.693033 C211.774222,178.990765 212.982118,178.270636 214.133839,178.740505 C215.188518,179.169541 215.967378,180.602161 216.11551,182.147164 C216.251316,183.649005 215.884856,185.153452 215.073592,186.424601 L215.073592,186.424601 Z" id="路径" fill="#00BFA6"></path>
            <path d="M221.55892,208.252885 C218.374214,206.292027 215.1895,204.331169 212.004779,202.370308 L212.058812,202.231072 C210.078709,202.985256 209.256627,206.505002 209.583869,209.383398 C209.91111,212.261793 211.020709,214.834931 211.581253,217.639567 C212.337088,221.477634 212.051813,225.448059 210.755041,229.138646 C214.942751,224.439778 218.648839,219.332918 221.817713,213.894672 C222.260388,213.209271 222.597704,212.46132 222.818393,211.675806 C223.05215,210.838673 222.968836,209.944726 222.584411,209.165206 C222.323724,208.780589 221.971267,208.467028 221.55892,208.252885 Z" id="路径" fill="#00BFA6"></path>
            <path d="M208.989946,172.578926 C208.615981,173.381892 208.558354,174.296297 208.828551,175.139859 C209.142789,175.819503 209.712831,176.347465 210.414533,176.608763 L212.174235,177.481008 C212.759657,177.771184 213.390655,178.064274 213.987449,177.825521 C214.707244,177.537564 215.206329,176.409087 215.077225,175.361486 C214.939812,174.246681 214.237119,173.479848 213.587229,172.826826 C212.677752,171.912992 211.76828,170.999154 210.858813,170.085313 L210.346258,170.713093 C209.791865,171.253838 209.333251,171.884737 208.989946,172.578926 L208.989946,172.578926 Z" id="路径" fill="#00BFA6"></path>
            <path d="M270.93319,184.496548 C271.724862,184.682962 272.516513,184.869377 273.308143,185.055794 C273.170234,187.729539 271.844879,190.204087 270.067515,191.100411 C269.326936,191.473271 268.502095,191.611147 267.889203,192.308335 C267.335071,192.941644 267.054139,193.92734 266.796214,194.869669 C266.3442,196.514266 265.892189,198.158844 265.440181,199.803403 C264.955004,201.575687 264.331918,203.544607 263.070375,204.183035 C261.987609,204.732048 260.749069,204.060428 259.916562,202.934238 C259.084055,201.808081 258.57587,200.293723 258.082994,198.817708 C258.113638,200.426523 257.365422,202.004718 256.30563,202.563963 C255.24328,203.123208 253.951093,202.617581 253.241193,201.368852 C252.730451,200.472485 252.518502,199.290105 252.01796,198.381006 C251.517447,197.471907 250.467891,196.950939 249.921382,197.803867 C249.561301,198.370812 249.607253,199.239044 249.428506,199.959206 C249.244025,200.939237 248.45881,201.694731 247.472394,201.841278 C246.578118,201.820772 245.731501,201.433927 245.130647,200.771262 C243.566831,199.171598 242.548765,197.118492 242.221979,194.905427 C242.000434,193.844373 242.028416,192.746358 242.303718,191.697966 C242.617818,190.704629 243.376256,189.93852 244.129586,190.127466 C244.625019,189.080424 243.646966,187.691229 242.765921,187.813802 C241.882319,187.936374 241.190283,188.883783 240.465036,189.611611 C239.742346,190.33941 238.731096,190.868011 238.003263,190.145326 C238.02037,190.423269 237.920642,190.69573 237.728149,190.896954 C237.535657,191.098178 237.267884,191.209886 236.989457,191.205119 C236.505518,191.066197 236.055866,190.827888 235.669211,190.505407 C234.00164,189.466036 231.884612,190.155554 230.699694,192.121888 C231.440273,188.970612 232.525596,185.354586 234.800917,184.614007 C235.7305,184.310135 236.744311,184.560389 237.622766,184.034311 C239.177992,183.102244 239.492092,179.580678 238.148844,178.127637 C238.31992,179.501501 238.286753,181.105236 237.561482,182.045022 C236.83624,182.984809 235.314215,182.371873 235.406172,180.982697 C235.363814,181.383524 235.068256,181.711532 234.67399,181.795265 C234.279725,181.878999 233.876367,181.699425 233.67476,181.35041 C233.192107,180.614979 233.232974,179.412197 233.575161,178.533709 C233.927933,177.738056 234.433807,177.019587 235.063961,176.419238 C236.276965,175.119413 237.507869,173.804253 238.912401,172.987048 C240.31949,172.169878 241.943642,171.894088 243.353254,172.706179 C244.096423,173.135185 244.750154,173.850234 245.508592,174.228174 C245.875699,174.455963 246.319424,174.525319 246.738531,174.420418 C247.157637,174.315517 247.516371,174.045309 247.732886,173.671443 C248.297245,172.68061 248.031649,171.209675 248.24107,169.971154 C248.616454,167.782648 250.80496,166.758609 252.01797,168.203989 C251.111423,167.971623 250.174208,169.044162 250.061829,170.344019 C249.946922,171.643844 250.603239,172.956447 251.481698,173.349725 C252.957742,174.003456 254.403117,172.358858 255.519109,170.836867 C256.683579,169.24336 257.849765,167.650706 259.017667,166.058907 C259.204155,165.78788 259.413464,165.533287 259.64331,165.297906 C260.402344,164.558056 261.605039,164.533494 262.393647,165.241736 C263.573455,166.204453 264.127621,168.178487 265.09548,169.537043 C266.500012,171.511043 268.601704,171.99114 270.557816,172.374195 C272.015964,172.657655 273.474989,172.942817 274.93489,173.22968 C275.908022,175.040106 276.756951,176.914593 277.475807,178.840177 C274.798717,180.060897 272.528026,182.024006 270.93319,184.496548 Z" id="路径" fill="#00BFA6"></path>
            <path d="M278.880315,183.286095 C278.58116,184.167969 278.417562,185.090134 278.395109,186.021096 C277.143789,184.493991 276.944591,181.631304 277.766875,179.649633 C278.188284,180.83965 278.55943,182.051804 278.880315,183.286095 Z" id="路径" fill="#00BFA6"></path>
            <path d="M275.647338,215.222666 C274.553268,217.444199 273.280754,219.573302 271.842322,221.58902 C270.922996,221.195742 269.934715,221.898006 269.074101,222.556879 C268.175196,223.246368 267.094987,223.917992 266.173104,223.289792 C265.230804,222.646255 264.926897,220.845918 265.225695,219.418378 C265.569093,218.101521 266.169673,216.86563 266.992831,215.781911 C267.75894,214.637861 268.578668,213.450382 269.643574,213.006043 C270.711033,212.561719 272.082334,213.1899 272.393911,214.706815 L273.149798,214.681246 C272.725871,214.099027 272.948077,212.893659 273.517545,212.681711 C274.173832,212.434013 274.743334,213.335446 275.131469,214.132229 C275.305151,214.492281 275.481342,214.854919 275.647338,215.222666 Z" id="路径" fill="#00BFA6"></path>
            <path d="M246.697162,204.436049 C245.072417,204.538224 243.785445,202.538061 242.930239,200.570381 C242.075033,198.6027 241.294711,196.352476 239.828693,195.350923 C238.991033,194.778623 238.036021,194.700116 237.127429,194.422778 C236.081893,194.158708 235.227811,193.406746 234.833443,192.403076 L233.802794,191.986734 C232.361122,192.707377 231.040852,193.648771 229.889717,194.776882 C228.574267,196.174204 227.754943,197.965413 227.558053,199.874379 C227.36117,201.93735 228.088183,204.237656 229.446628,205.012614 C230.520006,205.624966 231.769719,205.238992 232.856972,205.799588 C234.215403,206.499961 235.021892,208.534521 235.327192,210.543387 C235.632493,212.552253 235.555115,214.639926 235.773533,216.671582 C235.991951,218.703238 236.593926,220.817261 237.839713,221.858403 C239.398663,223.161271 241.68618,222.078644 242.385616,219.706972 C242.728701,218.543624 242.716881,217.230919 242.973485,216.023317 C243.425364,213.89666 244.644756,212.318865 245.611906,210.574374 C246.579057,208.829884 247.340399,206.460575 246.697162,204.436049 Z" id="路径" fill="#00BFA6"></path>
            <path d="M230.642222,183.538757 C230.79374,183.678237 230.935131,183.828333 231.065318,183.987906 C231.339938,184.461365 231.32994,185.047933 231.039344,185.511759 C231.435015,185.489228 231.803191,185.302104 232.054613,184.995754 C232.351148,184.658026 232.612006,184.290571 232.833034,183.899239 C233.043284,183.628126 233.126882,183.27973 233.062548,182.942731 C232.985797,182.723681 232.80429,182.630242 232.677043,182.4655 C232.500653,182.143409 232.380252,181.793698 232.320976,181.431286 C232.177079,180.73845 231.653529,180.186696 230.969188,180.00668 L231.050614,180.022262 C230.766455,180.190879 230.621038,180.521584 230.688854,180.844971 C230.738178,181.163645 230.942953,181.428208 230.922575,181.753221 C230.893291,182.220571 230.42622,182.439887 230.397366,182.907301 C230.392818,183.141787 230.480781,183.368635 230.642222,183.538757 Z" id="路径" fill="#00BFA6"></path>
            <path d="M227.858495,175.596693 L227.865731,175.595284 C227.915705,175.54974 227.962051,175.500369 228.00435,175.44762 L227.858495,175.596693 Z" id="路径" fill="#00BFA6"></path>
            <path d="M228.345765,177.790419 C228.743573,177.441345 228.913676,176.899664 228.786843,176.385838 C228.668815,175.854425 228.251082,175.497132 227.865751,175.595279 C227.638514,175.825651 227.308658,175.922763 226.992844,175.852268 C226.754622,175.790941 226.493083,175.633001 226.286485,175.812482 C226.168291,175.946516 226.085569,176.108033 226.045879,176.282274 C225.96941,176.51704 225.892932,176.751783 225.816447,176.986501 C225.780136,177.070543 225.770668,177.163749 225.789339,177.253375 C225.819127,177.326416 225.884831,177.37865 225.962707,177.391203 C226.421549,177.526475 226.880384,177.66174 227.33921,177.796999 C227.659062,177.944368 228.027867,177.941957 228.345765,177.790419 Z" id="路径" fill="#00BFA6"></path>
            <path d="M262.984574,208.077032 C262.772472,207.729793 262.560375,207.38254 262.348283,207.035272 C262.139952,206.633132 261.855136,206.275517 261.509809,205.982485 C261.356438,205.854004 261.157731,205.792812 260.958653,205.812755 C260.759576,205.832698 260.576956,205.932091 260.452119,206.088442 L260.477954,206.286787 C261.045884,206.895644 261.432884,207.650738 261.595518,208.467318 C261.643878,208.822194 261.627046,209.189477 261.669452,209.545897 C261.678486,209.879666 261.819858,210.196147 262.062416,210.425601 C262.396387,210.648723 262.788545,210.319749 263.026242,209.918333 C263.238735,209.588632 263.334059,209.197001 263.29686,208.806524 C263.243874,208.544523 263.137578,208.296216 262.984574,208.077032 L262.984574,208.077032 Z" id="路径" fill="#00BFA6"></path>
            <path d="M266.311799,208.528935 C266.352239,208.203849 266.325821,207.873929 266.234166,207.559421 C266.218989,207.133886 266.331807,206.713583 266.558035,206.352847 C266.782733,206.012538 266.952988,205.639271 267.062664,205.246499 C267.108878,205.067533 267.100445,204.878828 267.03845,204.704698 C266.968246,204.54698 266.798197,204.475059 266.700658,204.599928 L266.909393,204.734363 C266.627542,204.684064 266.337968,204.698082 266.062293,204.775371 C265.743123,204.897553 265.503536,205.167632 265.420281,205.499093 C265.385808,205.753755 265.329476,206.004977 265.25191,206.249977 C265.127398,206.505909 264.886378,206.59103 264.734917,206.815672 C264.525091,207.220219 264.533097,207.703233 264.756216,208.100603 C264.946424,208.420554 265.248808,208.658345 265.604586,208.767751 C265.85952,208.859249 266.19518,208.864074 266.311799,208.528935 Z" id="路径" fill="#00BFA6"></path>
            <path d="M272.236955,210.316623 C272.329105,210.556433 272.452552,210.783009 272.60409,210.990461 C272.887762,211.276194 273.273273,211.100602 273.617409,211.03115 C274.253619,210.930682 274.893655,211.187401 275.284097,211.699663 C275.013247,210.349038 274.103476,209.214008 272.844198,208.655647 C272.037803,208.376517 271.188042,208.243633 270.33493,208.263252 L270.189205,208.300598 C270.560536,209.381506 271.726566,209.357322 272.236955,210.316623 Z" id="路径" fill="#00BFA6"></path>
            <polygon id="路径" fill="#00BFA6" points="247.141631 212.527456 247.143763 212.532165 247.186155 212.450522"></polygon>
            <path d="M246.24275,214.267325 C246.046719,214.62322 245.878133,214.993556 245.738459,215.375106 C245.553529,215.99312 245.431085,216.628133 245.37297,217.270599 C245.327317,217.635905 245.313239,218.102465 245.542098,218.280474 C245.678043,218.370707 245.859841,218.346017 245.966796,218.222794 C246.093931,218.088257 246.197956,217.933634 246.274668,217.765174 C246.724505,216.99044 247.073755,216.161528 247.313976,215.298476 C247.564682,214.382924 247.504822,213.410093 247.143763,212.532184 C246.843443,213.110564 246.543105,213.688945 246.24275,214.267325 Z" id="路径" fill="#00BFA6"></path>
            <path d="M237.571241,167.913653 C237.863077,168.198879 238.296474,168.283461 238.67414,168.128897 C239.056792,167.961606 239.407817,167.72974 239.711861,167.443442 C239.963626,167.257159 240.177198,167.024176 240.340929,166.757195 C240.52311,166.434963 240.569418,166.053431 240.469614,165.696973 C240.326641,165.3532 240.016241,165.107663 239.648787,165.047671 C239.139498,164.89664 238.630206,164.745618 238.12091,164.594605 L238.489323,164.262549 C238.110282,164.05912 237.690944,164.436665 237.454014,164.904079 C237.302079,165.209281 237.196171,165.535298 237.139736,165.871523 C236.976644,166.582571 237.134443,167.329364 237.571241,167.913653 L237.571241,167.913653 Z" id="路径" fill="#00BFA6"></path>
            <path d="M246.562736,164.895125 C246.860661,165.22353 247.362327,165.264341 247.709415,164.988409 C248.000526,164.769754 248.184921,164.437623 248.216572,164.07492 C248.25262,163.674319 248.054541,163.229064 247.77164,163.194473 L247.836388,162.819398 C247.291422,162.720981 246.620816,162.701268 246.328773,163.363065 C246.128322,163.878972 246.217442,164.46256 246.562736,164.895125 L246.562736,164.895125 Z" id="路径" fill="#00BFA6"></path>
            <path d="M327.829481,137.563402 L140.970504,137.563402 C140.704166,137.557551 140.491308,137.339966 140.491308,137.073563 C140.491308,136.80716 140.704166,136.589575 140.970504,136.583723 L327.829481,136.583723 C328.09582,136.589575 328.308678,136.80716 328.308678,137.073563 C328.308678,137.339966 328.09582,137.557551 327.829481,137.563402 L327.829481,137.563402 Z" id="路径" fill="#CACACA"></path>
            <ellipse id="椭圆形" fill="#3F3D56" cx="151.755432" cy="125.317391" rx="5.27078396" ry="5.3882428"></ellipse>
            <ellipse id="椭圆形" fill="#3F3D56" cx="169.963589" cy="125.317391" rx="5.27078396" ry="5.3882428"></ellipse>
            <ellipse id="椭圆形" fill="#3F3D56" cx="188.171745" cy="125.317391" rx="5.27078396" ry="5.3882428"></ellipse>
            <path d="M316.918203,121.264682 L303.984077,121.264682 C303.450776,121.27527 303.023981,121.710622 303.023981,122.244028 C303.023981,122.777435 303.450776,123.212787 303.984077,123.223375 L316.918203,123.223375 C317.451505,123.212787 317.8783,122.777435 317.8783,122.244028 C317.8783,121.710622 317.451505,121.27527 316.918203,121.264682 L316.918203,121.264682 Z" id="路径" fill="#3F3D56"></path>
            <path d="M316.918203,124.940849 L303.984077,124.940849 C303.450776,124.951437 303.023981,125.386789 303.023981,125.920195 C303.023981,126.453602 303.450776,126.888954 303.984077,126.899542 L316.918203,126.899542 C317.451505,126.888954 317.8783,126.453602 317.8783,125.920195 C317.8783,125.386789 317.451505,124.951437 316.918203,124.940849 L316.918203,124.940849 Z" id="路径" fill="#3F3D56"></path>
            <path d="M316.918203,128.612192 L303.984077,128.612192 C303.450776,128.622779 303.023981,129.058131 303.023981,129.591538 C303.023981,130.124945 303.450776,130.560297 303.984077,130.570884 L316.918203,130.570884 C317.451505,130.560297 317.8783,130.124945 317.8783,129.591538 C317.8783,129.058131 317.451505,128.622779 316.918203,128.612192 L316.918203,128.612192 Z" id="路径" fill="#3F3D56"></path>
            <g id="编组" opacity="0.35" transform="translate(139.155221, 183.968103)" fill="#FFFFFF">
                <path d="M193.624962,13.2147619 C196.632472,11.9034461 190.533267,11.1400819 183.613437,10.889099 C176.693608,10.6381162 168.322609,10.6520007 163.900465,9.93811518 C159.623602,9.24768568 159.938724,8.02005819 159.578962,6.90778612 C159.219199,5.79551405 157.575002,4.65504356 150.901399,4.40779962 C142.585229,4.09969631 128.871365,5.28566539 122.593572,4.5736565 C116.735219,3.90922069 120.217572,1.82502218 111.675067,1.74525611 C106.797049,1.69970445 100.51282,2.38682926 95.0850367,2.55265237 C91.2376176,2.7195599 87.3830514,2.51859696 83.5738484,1.95250123 C80.928277,1.51905606 79.0856201,0.969541469 76.1081419,0.586689426 C68.2910624,-0.418462419 52.9971224,-0.0805975905 39.3467186,1.20764323 C25.6963147,2.49588405 13.9954082,4.60706524 7.39647142,6.69809022 C0.797534666,8.78911521 -1.02559327,10.847899 0.51155107,12.5937164 C1.49310212,13.7085358 4.00487454,14.750951 10.0977739,15.1989223 C21.4941664,16.0368231 41.784437,14.5945644 53.5606615,15.356901 C60.1240571,15.781783 63.0358563,16.8351929 68.7945622,17.4115985 C74.9813292,18.030859 84.0381888,18.063684 92.936568,18.0489938 C111.464112,18.0184025 130.465553,17.8280378 149.84123,17.4789612 C157.934104,17.3331447 166.413858,17.1435761 175.025385,16.4486985 C183.636913,15.7538209 192.420327,14.4131007 194.237145,13.1562279" id="路径"></path>
            </g>
        </g>
    </g>
</svg>