<?xml version="1.0" encoding="UTF-8"?>
<svg width="400px" height="280px" viewBox="0 0 400 280" version="1.1" xmlns="http://www.w3.org/2000/svg" xmlns:xlink="http://www.w3.org/1999/xlink">
    <title>2-chart</title>
    <g id="页面-1" stroke="none" stroke-width="1" fill="none" fill-rule="evenodd">
        <g id="2-chart" fill-rule="nonzero">
            <polygon id="路径" fill="#FFB8B8" points="353.239838 272.908583 346.547745 272.908108 343.364248 247.096497 353.240789 247.096972"></polygon>
            <path d="M354.94635,279.395322 L333.368685,279.394519 L333.368685,279.121583 C333.369019,274.483305 337.12905,270.723346 341.767328,270.723102 L341.767861,270.723102 L354.946764,270.723634 L354.94635,279.395322 Z" id="路径" fill="#2F2E41"></path>
            <polygon id="路径" fill="#FFB8B8" points="382.774876 256.456396 378.431195 261.547235 356.729422 247.214369 363.140618 239.701449"></polygon>
            <path d="M388.817432,259.368863 L374.811001,275.782742 L374.603384,275.605587 C371.075192,272.594689 370.65553,267.293834 373.666002,263.765278 L373.666349,263.76487 L382.221034,253.739863 L388.817432,259.368863 Z" id="路径" fill="#2F2E41"></path>
            <polygon id="路径" fill="#2F2E41" points="305.724078 145.969849 303.640879 165.181098 387.848604 163.980039 351.12527 104.142843 321.141082 103.065834"></polygon>
            <polygon id="路径" fill="#000000" opacity="0.28" points="305.724078 145.969849 303.640879 165.181098 387.848604 163.980039 351.12527 104.142843 321.141082 103.065834"></polygon>
            <path d="M322.282625,149.267976 L319.309791,166.846151 L319.309791,182.558372 L343.278753,190.382222 C343.278753,190.382222 340.47276,251.41149 344.213569,255.29865 L344.121662,264.682062 L354.578057,265.157353 L354.663329,258.553726 L359.096427,209.192065 L361.707431,172.950955 L357.474188,145.473973 L322.282625,149.267976 Z" id="路径" fill="#2F2E41"></path>
            <path d="M340.852532,164.399354 L319.309791,182.558372 C319.309791,182.558372 318.048988,215.321033 321.250798,219.163202 C324.00083,222.463231 359.767281,250.927767 359.767281,250.927767 C359.767281,250.927767 366.124018,256.758595 369.686345,256.852428 C373.248673,256.944539 377.392019,249.47276 377.392019,249.47276 L369.141786,243.204498 C369.141786,243.204498 347.768349,223.253735 341.422191,215.321033 C338.860745,212.119223 338.860745,211.799044 338.860745,211.799044 L339.73557,198.484122 L348.540368,173.773156 L340.852532,164.399354 Z" id="路径" fill="#2F2E41"></path>
            <polygon id="路径" fill="#2F2E41" points="317.980874 77.4177229 308.692743 76.5593479 300.267741 77.9633566 282.42818 77.9690601 280.908201 90.8988678 297.188332 94.5419709 301.155584 92.5975567 317.693323 98.8984853"></polygon>
            <path d="M329.074349,77.3772519 C329.074349,77.3772519 348.78635,75.5302485 353.268883,79.0522381 C357.751416,82.5742276 367.356841,152.373649 367.356841,152.373649 L329.074349,154.53424 L322.211341,149.812203 L324.159463,114.965497 L329.074349,77.3772519 Z" id="路径" fill="#CCCCCC"></path>
            <polygon id="路径" fill="#2F2E41" points="335.091339 76.9424322 313.347265 77.4196241 293.074692 169.022873 309.083908 172.545252"></polygon>
            <polygon id="路径" fill="#2F2E41" points="350.548742 76.1681837 367.676792 81.5289873 366.703872 119.165831 387.848604 164.163501 362.991377 166.781877 343.343335 118.192911"></polygon>
            <path d="M378.792786,168.73421 C380.008339,167.664128 380.687479,166.110593 380.647462,164.49163 C380.607444,162.872667 379.852381,161.354581 378.585446,160.345861 L382.031213,148.325142 L375.236975,144.449494 L370.609303,161.493418 C369.020923,163.784405 369.397098,166.901336 371.48492,168.748651 C373.572742,170.595967 376.712284,170.58976 378.792786,168.734205 L378.792786,168.73421 Z" id="路径" fill="#FFB8B8"></path>
            <path d="M357.751416,82.5742276 L367.886206,81.6951489 C367.886206,81.6951489 376.984743,91.2112669 379.054681,98.5793466 C381.12462,105.947426 383.365881,129.00045 383.365881,129.00045 L382.430956,162.724744 L370.584264,154.679883 L369.789711,125.672584 L357.751416,82.5742276 Z" id="路径" fill="#2F2E41"></path>
            <circle id="椭圆形" fill="#FFB8B8" transform="translate(342.700732, 58.732547) rotate(-61.336810) translate(-342.700732, -58.732547) " cx="342.700732" cy="58.7325474" r="14.3664214"></circle>
            <path d="M341.098956,52.7348606 C339.214029,52.2993185 337.257328,52.7819572 335.348195,53.0948315 C333.439062,53.4077059 331.335145,53.5108439 329.720235,52.445651 C328.527598,51.6589879 327.794358,50.3575707 327.105804,49.1057263 C326.818493,48.6586499 326.627002,48.1568579 326.543421,47.6320353 C326.462351,46.7062118 327.051298,45.8615109 327.676704,45.1740553 C330.581681,41.9808338 334.826863,40.2331092 339.10792,39.6779411 C342.638488,39.1517623 346.245658,39.5922472 349.54586,40.9525567 C352.79565,42.3779202 355.589247,44.9881501 356.866928,48.2987826 C357.455401,49.9931927 357.822902,51.7564193 357.960339,53.5448367 C358.153398,54.8606763 358.178165,56.1957397 358.034043,57.5178343 C357.861976,58.4979389 357.604342,59.4610773 357.264096,60.3961947 L355.147626,66.7869532 C354.995464,67.3908645 354.711224,67.9534996 354.315392,68.4343107 C353.897657,68.9179961 353.211071,69.0684185 352.62937,68.8036972 C352.798743,68.1095527 352.824559,67.388129 352.705236,66.6836536 C352.569754,65.9653498 352.01088,65.4017347 351.293746,65.2601912 C350.513642,65.1774051 349.847227,65.7821269 349.107209,66.042572 C348.423219,66.2453309 347.686697,66.1680708 347.059671,65.8277881 C346.432645,65.4875053 345.966477,64.9120741 345.76372,64.2280833 C345.743463,64.1598125 345.725952,64.090813 345.711186,64.0210847 C345.594364,63.2904583 345.790512,62.5082914 345.513579,61.8221666 C345.189103,61.0182837 344.328679,60.5970716 343.682284,60.0194175 C342.478052,58.9081362 342.026983,57.1996623 342.525712,55.6387679 C342.69876,55.1069176 343.187488,54.865123 343.089715,54.2541273 C342.96142,53.4525543 341.779624,52.8921343 341.098956,52.7348606 Z" id="路径" fill="#2F2E41"></path>
            <polygon id="路径" fill="#FFFFFF" points="181.376514 113.463844 0 113.463844 0 0 181.376514 0"></polygon>
            <path d="M181.376514,113.463844 L0,113.463844 L0,0 L181.376514,0 L181.376514,113.463844 Z M0.828203521,112.635641 L180.548311,112.635641 L180.548311,0.828203521 L0.828203521,0.828203521 L0.828203521,112.635641 Z" id="形状" fill="#3F3D56"></path>
            <polygon id="路径" fill="#FFFFFF" points="159.222075 270.615615 55.6966678 270.615615 55.6966678 157.15177 159.222075 157.15177"></polygon>
            <path d="M159.222075,270.615615 L55.6966678,270.615615 L55.6966678,157.15177 L159.222075,157.15177 L159.222075,270.615615 Z M56.5248713,269.787411 L158.393871,269.787411 L158.393871,157.979969 L56.5248713,157.979969 L56.5248713,269.787411 Z" id="形状" fill="#3F3D56"></path>
            <rect id="矩形" fill="#3F3D56" x="123.609347" y="259.89924" width="21.5332868" height="1"></rect>
            <rect id="矩形" fill="#3F3D56" x="123.609347" y="262.518135" width="21.5332868" height="1"></rect>
            <rect id="矩形" fill="#3F3D56" x="123.609347" y="265.137053" width="21.5332868" height="1"></rect>
            <path d="M107.459383,177.442647 L107.459383,186.552886 C118.513621,186.552887 128.479388,193.211799 132.709664,203.424582 C136.93994,213.637366 134.601644,225.39279 126.785121,233.20932 L133.227025,239.651225 C143.649058,229.229187 146.766787,213.555289 141.126421,199.938244 C135.486055,186.321199 122.198367,177.442647 107.459383,177.442647 Z" id="路径" fill="#E6E6E6"></path>
            <path d="M133.227025,239.65123 L126.785121,233.209325 C117.121825,242.874617 101.803423,243.913232 90.9239157,235.640779 L85.4098356,242.896153 C99.9180841,253.922968 120.34151,252.537013 133.227025,239.65123 L133.227025,239.65123 Z" id="路径" fill="#575A89"></path>
            <path d="M80.1286764,213.883588 C80.1286739,206.635033 83.00815,199.683359 88.1336523,194.557857 C93.2591546,189.432355 100.210828,186.552879 107.459383,186.552881 L107.459383,177.442647 C91.8167892,177.442647 77.9191188,187.425689 72.9252908,202.249738 C67.9314629,217.073787 72.95566,233.431262 85.4098356,242.896158 L90.9239299,235.640784 C84.1177953,230.478345 80.1225096,222.426082 80.1286764,213.883588 Z" id="路径" fill="#00BFA6"></path>
            <polygon id="路径" fill="#FFFFFF" points="312.439678 200.218339 208.914272 200.218339 208.914272 86.7542903 312.439678 86.7542903"></polygon>
            <path d="M312.439678,200.218339 L208.914272,200.218339 L208.914272,86.7542903 L312.439678,86.7542903 L312.439678,200.218339 Z M209.742475,199.390145 L311.611475,199.390145 L311.611475,87.5824938 L209.742475,87.5824938 L209.742475,199.390145 Z" id="形状" fill="#3F3D56"></path>
            <rect id="矩形" fill="#575A89" x="223.82194" y="156.116411" width="18.6345745" height="29.8153172"></rect>
            <rect id="矩形" fill="#E6E6E6" x="250.738545" y="135.82543" width="18.6345745" height="50.1062988"></rect>
            <rect id="矩形" fill="#00BFA6" x="277.655154" y="112.221639" width="18.6345745" height="73.7100896"></rect>
            <polygon id="路径" fill="#3F3D56" points="302.501132 186.760246 218.852823 186.760246 218.852823 100.212664 219.68078 100.212664 219.68078 185.931814 302.501132 185.931814"></polygon>
            <circle id="椭圆形" fill="#FFB8B8" cx="282.333883" cy="84.0716024" r="5.7034882"></circle>
            <path d="M399.524709,279.946212 L310.645352,279.946212 C310.382856,279.946212 310.170061,279.733417 310.170061,279.470922 C310.170061,279.208426 310.382856,278.995631 310.645352,278.995631 L399.524709,278.995631 C399.787205,278.995631 400,279.208426 400,279.470922 C400,279.733417 399.787205,279.946212 399.524709,279.946212 Z" id="路径" fill="#CCCCCC"></path>
            <path d="M156.187643,89.7342179 L25.188871,89.7342179 C24.9624578,89.7342179 24.7789043,89.5506668 24.7789043,89.3242536 L24.7789043,26.5365387 C24.7789043,26.3101204 24.9624526,26.126572 25.188871,26.126572 C25.4152894,26.126572 25.5988377,26.3101204 25.5988377,26.5365387 L25.5988377,88.9142868 L156.187643,88.9142868 C156.334442,88.913787 156.470304,88.9918163 156.543848,89.118865 C156.617392,89.2459137 156.617392,89.4025887 156.543848,89.5296374 C156.470304,89.6566861 156.334442,89.7342179 156.187643,89.7342179 L156.187643,89.7342179 Z" id="路径" fill="#3F3D56"></path>
            <path d="M53.1776034,85.2245863 L41.2627551,85.2245863 C40.5909796,85.2238398 40.046568,84.679475 40.0457638,84.0076995 L40.0457638,67.5830081 C40.046568,66.9112327 40.5909796,66.3668678 41.2627551,66.3661214 L53.1776034,66.3661214 C53.849377,66.3668704 54.3937858,66.9112345 54.3945899,67.5830081 L54.3945899,84.0076853 C54.3937937,84.6794644 53.8493826,85.2238372 53.1776034,85.2245863 Z" id="路径" fill="#00BFA6"></path>
            <path d="M74.9058212,85.2245863 L62.9909729,85.2245863 C62.3191982,85.2238398 61.7747879,84.6794742 61.7739864,84.0076995 L61.7739864,52.0042961 C61.7747905,51.3325225 62.3191993,50.7881584 62.9909729,50.7874093 L74.9058212,50.7874093 C75.5775948,50.7881584 76.1220036,51.3325225 76.1228077,52.0042961 L76.1228077,84.0076995 C76.1220062,84.6794742 75.5775959,85.2238398 74.9058212,85.2245863 Z" id="路径" fill="#00BFA6"></path>
            <path d="M96.6340389,85.2245863 L84.7191954,85.2245863 C84.0474218,85.2238372 83.503013,84.6794731 83.5022089,84.0076995 L83.5022089,67.5830081 C83.503013,66.9112345 84.0474218,66.3668704 84.7191954,66.3661214 L96.6340437,66.3661214 C97.3058192,66.3668678 97.8502308,66.9112327 97.851035,67.5830081 L97.851035,84.0076853 C97.8502387,84.6794681 97.3058218,85.2238424 96.6340389,85.2245863 Z" id="路径" fill="#00BFA6"></path>
            <path d="M118.362261,85.2248677 L106.447408,85.2248677 C105.790972,85.2387134 105.246775,84.7192131 105.230422,84.0628285 L105.230422,45.7996756 C105.246773,45.1432891 105.79097,44.623786 106.447408,44.6376317 L118.362261,44.6376317 C119.0187,44.623786 119.562897,45.1432891 119.579248,45.7996756 L119.579248,84.0628285 C119.562895,84.7192131 119.018698,85.2387134 118.362261,85.2248677 L118.362261,85.2248677 Z" id="路径" fill="#00BFA6"></path>
            <path d="M140.090479,85.2245863 L128.175631,85.2245863 C127.503856,85.2238398 126.959446,84.6794742 126.958644,84.0076995 L126.958644,34.7857076 C126.959449,34.113934 127.503857,33.5695699 128.175631,33.5688209 L140.090479,33.5688209 C140.762253,33.5695699 141.306662,34.113934 141.307466,34.7857076 L141.307466,84.0076995 C141.306662,84.6794731 140.762253,85.2238372 140.090479,85.2245863 L140.090479,85.2245863 Z" id="路径" fill="#00BFA6"></path>
            <circle id="椭圆形" fill="#3F3D56" cx="47.2201769" cy="58.9867392" r="2.45980039"></circle>
            <circle id="椭圆形" fill="#3F3D56" cx="68.9483946" cy="42.9980509" r="2.45980039"></circle>
            <circle id="椭圆形" fill="#3F3D56" cx="90.6766172" cy="58.9867392" r="2.45980039"></circle>
            <circle id="椭圆形" fill="#3F3D56" cx="112.404835" cy="35.2086878" r="2.45980039"></circle>
            <circle id="椭圆形" fill="#3F3D56" cx="134.133053" cy="26.1894244" r="2.45980039"></circle>
            <polygon id="路径" fill="#3F3D56" points="90.7282385 59.5377627 68.9485182 43.2243606 47.4658546 59.3148514 46.9744041 58.6584749 68.9485182 42.1996339 90.6246251 58.4355636 112.165274 34.8635222 112.251777 34.8283507 133.979691 26.0734963 134.286253 26.8344367 112.644367 35.5541195"></polygon>
        </g>
    </g>
</svg>