<?xml version="1.0" encoding="UTF-8"?>
<svg width="400px" height="289px" viewBox="0 0 400 289" version="1.1" xmlns="http://www.w3.org/2000/svg" xmlns:xlink="http://www.w3.org/1999/xlink">
    <title>3-plan</title>
    <g id="页面-1" stroke="none" stroke-width="1" fill="none" fill-rule="evenodd">
        <g id="3-plan" transform="translate(0.000000, 0.000000)" fill-rule="nonzero">
            <path d="M399.421965,286.730104 L0.578034682,286.730104 C0.258794942,286.730104 0,286.471309 0,286.152069 C0,285.83283 0.258794942,285.574035 0.578034682,285.574035 L399.421965,285.574035 C399.741205,285.574035 400,285.83283 400,286.152069 C400,286.471309 399.741205,286.730104 399.421965,286.730104 Z" id="路径" fill="#CCCCCC"></path>
            <path d="M359.944723,185.91985 L125.262642,185.91985 C123.187583,185.91985 121.505416,187.602023 121.505416,189.677081 C121.505416,191.752139 123.187583,193.434306 125.262642,193.434306 L131.91004,193.434306 L131.91004,283.318699 C131.91004,285.393758 133.592208,287.075925 135.667266,287.075925 C137.742324,287.075925 139.424491,285.393758 139.424491,283.318699 L139.48159,193.434306 L345.204838,193.434306 L345.204838,283.318699 C345.204838,285.393758 346.887005,287.075925 348.962064,287.075925 C351.037122,287.075925 352.719289,285.393758 352.719289,283.318699 L352.719289,195.415439 L353.812416,193.434301 L359.944723,193.434301 C362.019781,193.434301 363.701948,191.752133 363.701948,189.677075 C363.701948,187.602017 362.019781,185.91985 359.944723,185.91985 L359.944723,185.91985 Z" id="路径" fill="#CCCCCC"></path>
            <path d="M255.372289,187.886173 L184.284532,187.886173 C181.418522,187.882931 179.095971,185.56038 179.092728,182.69437 L179.092728,143.556168 C179.095971,140.690158 181.418522,138.367607 184.284532,138.364364 L255.372289,138.364364 C258.238299,138.367607 260.56085,140.690158 260.564092,143.556168 L260.564092,182.69437 C260.56085,185.56038 258.238299,187.882931 255.372289,187.886173 L255.372289,187.886173 Z" id="路径" fill="#3F3D56"></path>
            <path d="M255.371896,142.360156 L184.284925,142.360156 C183.624694,142.361552 183.089833,142.896457 183.088491,143.556688 L183.088491,182.695416 C183.089849,183.355641 183.6247,183.890536 184.284925,183.891948 L255.371896,183.891948 C256.032121,183.890536 256.566972,183.355641 256.568329,182.695416 L256.568329,143.556688 C256.566988,142.896457 256.032127,142.361552 255.371896,142.360156 Z" id="路径" fill="#FFFFFF"></path>
            <path d="M225.891329,170.070052 C225.891329,170.070052 217.381353,168.109087 212.700861,171.704156 C208.02037,175.299225 218.65785,183.469936 218.65785,183.469936 L225.891329,170.070052 Z" id="路径" fill="#2F2E41"></path>
            <circle id="椭圆形" fill="#A0616A" cx="220.245202" cy="158.337728" r="8.02721387"></circle>
            <path d="M214.038,147.069439 C215.129376,145.216919 217.167218,144.132671 219.313387,144.26263 C220.414406,144.400706 221.488829,144.70146 222.501526,145.155058 L227.749081,147.202035 C229.106954,147.731711 230.594116,148.380526 231.183341,149.713642 C231.73022,150.950954 231.322202,152.379919 230.909173,153.66811 L228.945861,159.791405 C228.728399,158.405533 228.355181,157.048641 227.833295,155.746503 C227.30289,154.435633 226.344469,153.342844 225.113994,152.645965 C223.750936,151.946717 222.14437,151.961197 220.614191,152.034838 C218.447058,152.139133 216.090769,152.41485 214.551006,153.943399 C213.733637,154.811478 213.179487,155.893754 212.952994,157.064376 C212.730074,158.228744 212.61787,159.4116 212.617884,160.597116 C211.729202,159.069524 210.980607,157.464632 210.38126,155.802081 C209.888247,154.564132 209.607308,153.251973 209.550237,151.920688 C209.498723,150.578005 209.944218,149.263489 210.801439,148.22878 C211.689073,147.197398 213.084554,146.758196 214.40289,147.095289 L214.038,147.069439 Z" id="路径" fill="#2F2E41"></path>
            <path d="M239.412139,177.030665 C239.258028,176.47634 238.786468,176.06853 238.215711,175.995983 C238.197232,175.983125 238.1779,175.971537 238.15785,175.961301 L226.174376,169.245578 C225.463514,168.84724 224.565073,169.078501 224.134879,169.770549 L220.857468,175.076942 L215.921052,170.140526 L215.84259,170.062023 C215.319613,169.539102 214.496684,169.467135 213.890879,169.891341 L204.042272,176.787925 C204.025058,176.787925 204.007555,176.793705 203.990341,176.793705 C203.019331,176.955551 202.291099,177.770231 202.238734,178.753243 L201.984434,183.891971 L241.313913,183.891971 L239.412139,177.030665 Z" id="路径" fill="#00BFA6"></path>
            <path d="M261.362832,183.09374 L253.774809,183.09374 C253.774806,182.652609 253.4172,182.295 252.976069,182.295 L250.579855,182.295 C250.138726,182.295 249.781122,182.652611 249.781116,183.09374 L247.384902,183.09374 C247.384895,182.652611 247.027291,182.295 246.586162,182.295 L244.189942,182.295 C243.748814,182.295 243.391211,182.652612 243.391208,183.09374 L240.994988,183.09374 C240.994985,182.652609 240.637379,182.295 240.196249,182.295 L237.800035,182.295 C237.358905,182.295 237.001301,182.652611 237.001295,183.09374 L234.605081,183.09374 C234.605075,182.652617 234.247481,182.295 233.806358,182.295 L231.410139,182.295 C230.96901,182.295 230.611408,182.652612 230.611405,183.09374 L228.215185,183.09374 C228.215182,182.652609 227.857576,182.295 227.416445,182.295 L225.020231,182.295 C224.579101,182.295 224.221495,182.652609 224.221491,183.09374 L221.82526,183.09374 C221.825254,182.652611 221.467649,182.295 221.02652,182.295 L218.630301,182.295 C218.189171,182.295 217.831567,182.652611 217.831561,183.09374 L215.435347,183.09374 C215.435344,182.652609 215.077737,182.295 214.636607,182.295 L212.240393,182.295 C211.799263,182.295 211.441656,182.652609 211.441653,183.09374 L209.045434,183.09374 C209.04543,182.652612 208.687828,182.295 208.246699,182.295 L205.85048,182.295 C205.409351,182.295 205.051746,182.652611 205.05174,183.09374 L202.655526,183.09374 C202.65552,182.652611 202.297915,182.295 201.856786,182.295 L199.460572,182.295 C199.019442,182.295 198.661836,182.652609 198.661832,183.09374 L196.265613,183.09374 C196.26561,182.652612 195.908007,182.295 195.466879,182.295 L193.070659,182.295 C192.62953,182.295 192.271925,182.652611 192.271919,183.09374 L189.875723,183.09374 C189.875716,182.652611 189.518112,182.295 189.076983,182.295 L186.680751,182.295 C186.239621,182.295 185.882015,182.652609 185.882012,183.09374 L178.293988,183.09374 C176.972048,183.095793 175.90149,184.168014 175.90149,185.489957 C175.90149,186.811899 176.972048,187.88412 178.293988,187.886173 L261.362832,187.886173 C262.686226,187.886173 263.759049,186.813351 263.759049,185.489957 C263.759049,184.166563 262.686226,183.09374 261.362832,183.09374 Z" id="路径" fill="#3F3D56"></path>
            <path d="M165.941653,169.178202 L165.941653,185.089023 L126.079081,185.089023 C123.170876,185.190222 120.439208,183.696451 118.955104,181.193386 C117.471001,178.690321 117.471001,175.576905 118.955104,173.07384 C120.439208,170.570774 123.170876,169.077004 126.079081,169.178202 L165.941653,169.178202 Z" id="路径" fill="#F2F2F2"></path>
            <path d="M166.920809,184.96663 C166.920809,185.304549 166.646774,185.578584 166.308855,185.578584 L125.369087,185.578584 C120.738854,185.578584 116.985309,181.825039 116.985309,177.194806 C116.985309,172.564574 120.738854,168.811029 125.369087,168.811029 L166.308855,168.811029 C166.646828,168.811029 166.920809,169.08501 166.920809,169.422983 C166.920809,169.760955 166.646828,170.034936 166.308855,170.034936 L125.369087,170.034936 C121.417312,170.038487 118.215647,173.24303 118.215647,177.194806 C118.215647,181.146583 121.417312,184.351126 125.369087,184.354676 L166.308855,184.354676 C166.646773,184.35481 166.920809,184.628713 166.920809,184.96663 L166.920809,184.96663 Z" id="路径" fill="#00BFA6"></path>
            <path d="M165.941653,172.849913 L123.104827,172.849913 C123.0609,172.850215 123.020181,172.826954 122.99813,172.788962 C122.97608,172.750971 122.97608,172.704076 122.99813,172.666084 C123.020181,172.628092 123.0609,172.604831 123.104827,172.605133 L165.941653,172.605133 C166.008919,172.605595 166.063205,172.660256 166.063205,172.727523 C166.063205,172.794791 166.008919,172.849451 165.941653,172.849913 L165.941653,172.849913 Z" id="路径" fill="#CCCCCC"></path>
            <path d="M165.941653,175.787312 L123.104827,175.787312 C123.0609,175.787614 123.020181,175.764353 122.99813,175.726361 C122.97608,175.688369 122.97608,175.641474 122.99813,175.603483 C123.020181,175.565491 123.0609,175.54223 123.104827,175.542532 L165.941653,175.542532 C166.008919,175.542994 166.063205,175.597654 166.063205,175.664922 C166.063205,175.73219 166.008919,175.78685 165.941653,175.787312 Z" id="路径" fill="#CCCCCC"></path>
            <path d="M165.941653,178.724694 L123.104827,178.724694 C123.0609,178.724996 123.020181,178.701734 122.99813,178.663743 C122.97608,178.625751 122.97608,178.578856 122.99813,178.540864 C123.020181,178.502873 123.0609,178.479611 123.104827,178.479913 L165.941653,178.479913 C166.008919,178.480376 166.063205,178.535036 166.063205,178.602303 C166.063205,178.669571 166.008919,178.724231 165.941653,178.724694 L165.941653,178.724694 Z" id="路径" fill="#CCCCCC"></path>
            <path d="M165.941653,181.662052 L123.104827,181.662052 C123.0609,181.662354 123.020181,181.639093 122.99813,181.601101 C122.97608,181.563109 122.97608,181.516214 122.99813,181.478223 C123.020181,181.440231 123.0609,181.41697 123.104827,181.417272 L165.941653,181.417272 C166.008919,181.417734 166.063205,181.472394 166.063205,181.539662 C166.063205,181.606929 166.008919,181.66159 165.941653,181.662052 L165.941653,181.662052 Z" id="路径" fill="#CCCCCC"></path>
            <path d="M158.427202,152.415197 L158.427202,168.326017 L118.56463,168.326017 C115.656425,168.427216 112.924757,166.933445 111.440653,164.43038 C109.95655,161.927315 109.95655,158.813899 111.440653,156.310834 C112.924757,153.807769 115.656425,152.313998 118.56463,152.415197 L158.427202,152.415197 Z" id="路径" fill="#F2F2F2"></path>
            <path d="M159.406358,168.203624 C159.406358,168.541543 159.132323,168.815578 158.794405,168.815578 L117.854636,168.815578 C114.859401,168.815578 112.091689,167.217639 110.594071,164.623689 C109.096453,162.02974 109.096453,158.833862 110.594071,156.239912 C112.091689,153.645962 114.859401,152.048023 117.854636,152.048023 L158.794405,152.048023 C159.132377,152.048023 159.406358,152.322004 159.406358,152.659977 C159.406358,152.99795 159.132377,153.271931 158.794405,153.271931 L117.854636,153.271931 C113.902861,153.275481 110.701196,156.480024 110.701196,160.431801 C110.701196,164.383577 113.902861,167.58812 117.854636,167.591671 L158.794405,167.591671 C159.132322,167.591804 159.406358,167.865707 159.406358,168.203624 L159.406358,168.203624 Z" id="路径" fill="#3F3D56"></path>
            <path d="M158.427202,156.086908 L115.590376,156.086908 C115.54645,156.087209 115.50573,156.063948 115.48368,156.025957 C115.461629,155.987965 115.461629,155.94107 115.48368,155.903078 C115.50573,155.865086 115.54645,155.841825 115.590376,155.842127 L158.427202,155.842127 C158.494468,155.842589 158.548754,155.89725 158.548754,155.964517 C158.548754,156.031785 158.494468,156.086445 158.427202,156.086908 L158.427202,156.086908 Z" id="路径" fill="#CCCCCC"></path>
            <path d="M158.427202,159.024306 L115.590376,159.024306 C115.54645,159.024608 115.50573,159.001347 115.48368,158.963355 C115.461629,158.925364 115.461629,158.878469 115.48368,158.840477 C115.50573,158.802485 115.54645,158.779224 115.590376,158.779526 L158.427202,158.779526 C158.494468,158.779988 158.548754,158.834649 158.548754,158.901916 C158.548754,158.969184 158.494468,159.023844 158.427202,159.024306 L158.427202,159.024306 Z" id="路径" fill="#CCCCCC"></path>
            <path d="M158.427202,161.961688 L115.590376,161.961688 C115.54645,161.96199 115.50573,161.938729 115.48368,161.900737 C115.461629,161.862745 115.461629,161.81585 115.48368,161.777859 C115.50573,161.739867 115.54645,161.716606 115.590376,161.716908 L158.427202,161.716908 C158.494468,161.71737 158.548754,161.77203 158.548754,161.839298 C158.548754,161.906565 158.494468,161.961226 158.427202,161.961688 L158.427202,161.961688 Z" id="路径" fill="#CCCCCC"></path>
            <path d="M158.427202,164.899046 L115.590376,164.899046 C115.54645,164.899348 115.50573,164.876087 115.48368,164.838095 C115.461629,164.800104 115.461629,164.753209 115.48368,164.715217 C115.50573,164.677225 115.54645,164.653964 115.590376,164.654266 L158.427202,164.654266 C158.494468,164.654728 158.548754,164.709388 158.548754,164.776656 C158.548754,164.843924 158.494468,164.898584 158.427202,164.899046 L158.427202,164.899046 Z" id="路径" fill="#CCCCCC"></path>
            <path d="M204.799509,241.643399 L204.799509,227.770566 C204.799509,226.493618 203.764318,225.458428 202.48737,225.458428 L149.886214,225.458428 C148.609265,225.458428 147.574075,226.493618 147.574075,227.770566 L147.574075,241.643399 L204.799509,241.643399 Z" id="路径" fill="#CCCCCC"></path>
            <rect id="矩形" fill="#CCCCCC" x="147.574075" y="246.845711" width="57.2254335" height="17.9190751"></rect>
            <path d="M147.574075,269.967098 L147.574075,283.839931 C147.574075,285.116879 148.609265,286.152069 149.886214,286.152069 L202.48737,286.152069 C203.764318,286.152069 204.799509,285.116879 204.799509,283.839931 L204.799509,269.967098 L147.574075,269.967098 Z" id="路径" fill="#CCCCCC"></path>
            <circle id="椭圆形" fill="#FFFFFF" cx="175.897775" cy="234.128948" r="1.73410405"></circle>
            <circle id="椭圆形" fill="#FFFFFF" cx="175.897775" cy="257.250335" r="1.73410405"></circle>
            <circle id="椭圆形" fill="#FFFFFF" cx="175.990705" cy="279.882127" r="1.73410405"></circle>
            <path d="M198.311595,209.64063 L198.311595,225.551451 L158.449023,225.551451 C155.540818,225.652649 152.80915,224.158879 151.325047,221.655814 C149.840943,219.152748 149.840943,216.039333 151.325047,213.536267 C152.80915,211.033202 155.540818,209.539432 158.449023,209.64063 L198.311595,209.64063 Z" id="路径" fill="#F2F2F2"></path>
            <path d="M199.290751,225.429058 C199.290751,225.766976 199.016716,226.041014 198.678798,226.041014 L157.739029,226.041014 C154.742136,226.0435 151.971827,224.446105 150.472661,221.851134 C148.973496,219.256162 148.973496,216.058306 150.472661,213.463335 C151.971827,210.868363 154.742136,209.270968 157.739029,209.273454 L198.678798,209.273454 C199.01677,209.273454 199.290751,209.547438 199.290751,209.88541 C199.290751,210.223383 199.01677,210.497364 198.678798,210.497364 L157.739029,210.497364 C153.787254,210.500915 150.585589,213.705458 150.585589,217.657234 C150.585589,221.609011 153.787254,224.813553 157.739029,224.817104 L198.678798,224.817104 C199.016715,224.817238 199.290751,225.091141 199.290751,225.429058 L199.290751,225.429058 Z" id="路径" fill="#3F3D56"></path>
            <path d="M198.311595,213.312341 L155.474769,213.312341 C155.430843,213.312643 155.390123,213.289382 155.368073,213.25139 C155.346022,213.213398 155.346022,213.166503 155.368073,213.128512 C155.390123,213.09052 155.430843,213.067259 155.474769,213.067561 L198.311595,213.067561 C198.378861,213.068023 198.433147,213.122683 198.433147,213.189951 C198.433147,213.257218 198.378861,213.311879 198.311595,213.312341 L198.311595,213.312341 Z" id="路径" fill="#CCCCCC"></path>
            <path d="M198.311595,216.24974 L155.474769,216.24974 C155.430843,216.250042 155.390123,216.226781 155.368073,216.188789 C155.346022,216.150797 155.346022,216.103902 155.368073,216.065911 C155.390123,216.027919 155.430843,216.004658 155.474769,216.00496 L198.311595,216.00496 C198.378861,216.005422 198.433147,216.060082 198.433147,216.12735 C198.433147,216.194617 198.378861,216.249278 198.311595,216.24974 L198.311595,216.24974 Z" id="路径" fill="#CCCCCC"></path>
            <path d="M198.311595,219.187121 L155.474769,219.187121 C155.430843,219.187423 155.390123,219.164162 155.368073,219.12617 C155.346022,219.088179 155.346022,219.041284 155.368073,219.003292 C155.390123,218.9653 155.430843,218.942039 155.474769,218.942341 L198.311595,218.942341 C198.378861,218.942803 198.433147,218.997464 198.433147,219.064731 C198.433147,219.131999 198.378861,219.186659 198.311595,219.187121 L198.311595,219.187121 Z" id="路径" fill="#CCCCCC"></path>
            <path d="M198.311595,222.12448 L155.474769,222.12448 C155.430843,222.124782 155.390123,222.10152 155.368073,222.063529 C155.346022,222.025537 155.346022,221.978642 155.368073,221.94065 C155.390123,221.902659 155.430843,221.879398 155.474769,221.879699 L198.311595,221.879699 C198.378861,221.880162 198.433147,221.934822 198.433147,222.00209 C198.433147,222.069357 198.378861,222.124017 198.311595,222.12448 L198.311595,222.12448 Z" id="路径" fill="#CCCCCC"></path>
            <path d="M144.572457,105.792734 L144.572457,4.3476474 C144.575187,1.94763973 146.520096,0.002729932 148.920104,0 L229.110029,0 C231.51003,0.00274582441 233.45493,1.94764632 233.457676,4.3476474 L233.457676,105.792734 C233.454943,108.19274 231.510034,110.137646 229.110029,110.140376 L148.920104,110.140376 C146.520099,110.137646 144.57519,108.19274 144.572457,105.792734 Z M148.920104,0.966144509 C147.053418,0.968234237 145.540691,2.4809612 145.538601,4.3476474 L145.538601,105.792734 C145.540694,107.659419 147.053419,109.172144 148.920104,109.174237 L229.110029,109.174237 C230.976712,109.172141 232.489436,107.659418 232.491532,105.792734 L232.491532,4.3476474 C232.489439,2.48096252 230.976714,0.968237416 229.110029,0.966144509 L148.920104,0.966144509 Z" id="形状" fill="#E6E6E6"></path>
            <path d="M193.511844,46.5882717 L193.511844,25.7583931 C193.513176,24.5583738 194.485651,23.5858981 195.685671,23.5845665 L213.337116,23.5845665 C214.537135,23.5858981 215.509611,24.5583738 215.510942,25.7583931 L215.510942,46.5882717 C215.509611,47.78829 214.537134,48.7607641 213.337116,48.7620925 L195.685671,48.7620925 C194.485652,48.7607641 193.513176,47.78829 193.511844,46.5882717 Z" id="路径" fill="#00BFA6"></path>
            <path d="M159.213746,56.2497052 L159.213746,35.4198555 C159.215077,34.2198394 160.18755,33.2473663 161.387566,33.2460347 L179.039012,33.2460347 C180.239028,33.2473663 181.211501,34.2198394 181.212832,35.4198555 L181.212832,56.2497341 C181.211501,57.4497511 180.239029,58.4222259 179.039012,58.4235607 L161.387566,58.4235607 C160.187538,58.4222259 159.215061,57.4497335 159.213746,56.2497052 L159.213746,56.2497052 Z" id="路径" fill="#CCCCCC"></path>
            <path d="M186.748838,85.7170867 L186.748838,64.8872081 C186.750173,63.6871911 187.722648,62.7147189 188.922665,62.7133873 L206.57411,62.7133873 C207.774127,62.7147189 208.746602,63.6871911 208.747936,64.8872081 L208.747936,85.7170867 C208.746605,86.917106 207.774129,87.8895817 206.57411,87.8909133 L188.922665,87.8909133 C187.722645,87.8895817 186.75017,86.917106 186.748838,85.7170867 Z" id="路径" fill="#FF6584"></path>
            <path d="M292.232902,180.949757 L274.071098,180.949757 C273.898742,180.949613 273.72867,180.989172 273.574069,181.065364 L268.99015,183.360162 C268.681783,183.491234 268.481573,183.79388 268.481573,184.128948 C268.481573,184.464016 268.681783,184.766662 268.99015,184.897734 L273.574069,187.192532 C273.72867,187.268724 273.898742,187.308283 274.071098,187.308139 L292.232908,187.308139 C292.753729,187.338274 293.202021,186.944138 293.238821,186.423746 L293.238821,181.834185 C293.202039,181.313776 292.753738,180.919619 292.232902,180.949757 Z" id="路径" fill="#3F3D56"></path>
            <path d="M293.238815,181.834168 L293.238815,186.423728 C293.202015,186.944121 292.753723,187.338257 292.232902,187.308121 L288.614538,187.308121 L288.614538,180.94974 L292.232902,180.94974 C292.753736,180.919605 293.202033,181.313761 293.238815,181.834168 Z" id="路径" fill="#00BFA6"></path>
            <path d="M292.096243,146.614382 C293.760102,145.896349 295.65125,145.922194 297.294866,146.685429 C298.938481,147.448663 300.178458,148.876797 300.703468,150.61126 C300.784308,150.883131 300.84615,151.160292 300.888549,151.44074 L326.286202,164.035052 L332.163861,160.139948 L339.477029,168.559208 L330.502509,175.848121 C328.286343,177.63401 325.161058,177.754545 322.813925,176.144653 L297.045613,158.32489 C296.853862,158.406209 296.658056,158.477613 296.458971,158.538821 C294.724227,159.063487 292.848045,158.823171 291.301541,157.878218 C289.755037,156.933264 288.685112,155.373433 288.360428,153.590405 C288.312865,153.334542 288.281487,153.075934 288.26648,152.816121 C288.120069,150.151279 289.648033,147.676966 292.096243,146.614382 L292.096243,146.614382 Z" id="路径" fill="#FFB8B8"></path>
            <path d="M344.994832,224.157023 L317.24352,224.157023 C317.24352,224.954711 288.642364,225.60211 288.642364,225.60211 C288.193448,225.940128 287.78431,226.327962 287.422792,226.758179 C286.336432,228.053852 285.742661,229.691619 285.74625,231.382457 L285.74625,232.538526 C285.747733,236.528415 288.981811,239.762492 292.971699,239.76396 L344.994821,239.76396 C348.98388,239.760492 352.216787,236.527586 352.220254,232.538526 L352.220254,231.382457 C352.21473,227.394255 348.983034,224.162554 344.994832,224.157023 Z" id="路径" fill="#3F3D56"></path>
            <rect id="矩形" fill="#3F3D56" transform="translate(318.565029, 263.754376) rotate(-180.000000) translate(-318.565029, -263.754376) " x="314.807803" y="239.476919" width="7.51445087" height="48.5549133"></rect>
            <path d="M293.42052,287.767832 C293.42052,288.579757 304.807497,288.081884 318.854046,288.081884 C332.900595,288.081884 344.287572,288.579757 344.287572,287.767832 C344.287572,286.955908 332.900595,280.517364 318.854046,280.517364 C304.807497,280.517364 293.42052,286.955919 293.42052,287.767832 Z" id="路径" fill="#3F3D56"></path>
            <polygon id="路径" fill="#FFB8B8" points="300.204046 282.076879 293.117919 282.076301 289.746243 263.696532 300.205202 263.69711"></polygon>
            <path d="M302.011462,288.946069 L279.161451,288.945225 L279.161451,288.656208 C279.161451,286.2974 280.098453,284.035197 281.766396,282.36728 C283.434338,280.699364 285.696556,279.762434 288.055364,279.762434 L288.055942,279.762434 L302.011896,279.763012 L302.011462,288.946069 Z" id="路径" fill="#2F2E41"></path>
            <path d="M289.604988,270.679191 L275.477289,238.998468 C273.031253,233.461219 275.250037,226.973849 280.574746,224.094318 L311.218347,207.662104 L325.201676,206.472728 L338.100347,205.300289 L338.193347,205.45778 C338.312312,205.65874 341.085636,210.448977 339.210977,215.701526 C337.789012,219.685676 334.090231,222.797694 328.217451,224.951208 C314.509728,229.977405 298.674601,234.273173 292.50278,235.886468 C291.951064,236.027542 291.485952,236.397702 291.224642,236.903676 C290.962739,237.403495 290.921604,237.990015 291.111179,238.521497 L304.236347,268.009728 C304.514172,268.767708 304.424307,269.611723 303.99311,270.294211 C303.561914,270.976699 302.838267,271.42029 302.034428,271.494873 L292.227168,272.208948 C292.143908,272.216852 292.061023,272.220803 291.978514,272.220803 C290.952411,272.220803 290.022535,271.616497 289.604988,270.679191 Z" id="路径" fill="#2F2E41"></path>
            <polygon id="路径" fill="#FFB8B8" points="303.672254 282.076879 296.586127 282.076301 293.214451 263.696532 303.67341 263.69711"></polygon>
            <path d="M305.479671,288.946069 L282.629659,288.945225 L282.629659,288.656208 C282.629659,286.2974 283.566662,284.035197 285.234604,282.36728 C286.902546,280.699364 289.164764,279.762434 291.523572,279.762434 L291.52415,279.762434 L305.480104,279.763012 L305.479671,288.946069 Z" id="路径" fill="#2F2E41"></path>
            <path d="M293.651231,272.413295 L279.523532,240.732572 C277.077496,235.195323 279.29628,228.707953 284.620988,225.828422 L315.26459,209.396208 L329.247919,208.206832 L342.14659,207.034393 L342.23959,207.191884 C342.358555,207.392844 345.131879,212.183081 343.25722,217.43563 C341.835254,221.41978 338.136474,224.531798 332.263694,226.685312 C318.555971,231.711509 302.720844,236.007277 296.549023,237.620572 C295.997307,237.761646 295.532194,238.131806 295.270884,238.63778 C295.008982,239.137599 294.967847,239.724119 295.157422,240.255601 L308.28259,269.743832 C308.560415,270.501812 308.47055,271.345827 308.039353,272.028315 C307.608156,272.710803 306.88451,273.154394 306.080671,273.228977 L296.27341,273.943052 C296.19015,273.950956 296.107266,273.954908 296.024757,273.954908 C294.998653,273.954908 294.068778,273.350602 293.651231,272.413295 Z" id="路径" fill="#2F2E41"></path>
            <path d="M286.609549,175.63252 C280.672895,167.735824 275.979759,158.977061 272.693133,149.660422 C272.299941,148.509546 272.796741,147.243121 273.867578,146.666561 L294.182757,135.781249 C294.848725,135.421683 295.643323,135.389428 296.336243,135.693832 C297.042072,136.000537 297.567008,136.615622 297.758965,137.360884 C300.123508,146.338678 304.568154,154.633811 310.733318,161.575179 C311.247622,162.147694 311.469063,162.925449 311.333457,163.683006 C311.203113,164.428534 310.736147,165.072251 310.067908,165.427578 L289.752734,176.312919 C288.679576,176.885153 287.349984,176.597339 286.609549,175.63252 L286.609549,175.63252 Z" id="路径" fill="#CCCCCC"></path>
            <path d="M287.995861,174.590809 C288.221325,174.872087 288.614993,174.953477 288.933474,174.784451 L309.248798,163.898902 C309.448782,163.794664 309.588391,163.602765 309.626012,163.380405 C309.66896,163.145649 309.599427,162.904333 309.43815,162.728422 C303.091285,155.582572 298.515682,147.043016 296.081543,137.800676 C296.024437,137.569186 295.862296,137.377756 295.643358,137.283335 C295.437087,137.191083 295.199491,137.200905 295.001538,137.309867 L274.686665,148.195116 C274.369191,148.366656 274.21875,148.739859 274.328503,149.083618 C277.556306,158.233493 282.165451,166.835473 287.995861,174.590809 L287.995861,174.590809 Z" id="路径" fill="#FFFFFF"></path>
            <path d="M354.099717,172.728844 L338.189509,178.774723 L334.305116,167.984757 C333.240206,165.02666 334.461142,161.731574 337.196445,160.181578 L337.196445,160.181578 C339.965539,158.612422 343.465094,159.295636 345.440659,161.791087 L354.099717,172.728844 Z" id="路径" fill="#00BFA6"></path>
            <path d="M313.631636,215.480295 C312.954285,215.001142 312.5156,214.253929 312.427301,213.428948 C310.389503,194.406017 311.808908,179.519087 316.765948,167.917468 C318.534876,163.863359 322.063628,160.843083 326.342191,159.721116 L339.203179,159.071954 L339.269786,159.104133 C345.22906,162.022977 348.569438,168.504014 347.489017,175.051173 C343.352457,185.954803 339.888763,197.307202 342.530283,206.465156 C342.754088,207.238768 342.653093,208.07017 342.250578,208.767699 C341.860176,209.442094 341.208392,209.925136 340.449584,210.102428 L315.95337,215.929624 C315.150849,216.120534 314.304984,215.956832 313.631636,215.480295 Z" id="路径" fill="#00BFA6"></path>
            <circle id="椭圆形" fill="#FFB8B8" cx="334.911052" cy="140.071208" r="14.1971272"></circle>
            <path d="M295.516428,151.315734 L284.451919,156.199879 C283.57574,156.585507 282.552753,156.189087 282.165214,155.313751 L281.891555,154.693803 C281.505926,153.817624 281.902346,152.794638 282.777682,152.407098 L293.842191,147.522954 C294.71837,147.137325 295.741356,147.533745 296.128896,148.409081 L296.402555,149.029029 C296.788184,149.905208 296.391763,150.928195 295.516428,151.315734 Z" id="路径" fill="#CCCCCC"></path>
            <path d="M299.562671,158.830185 L288.498162,163.714329 C287.621983,164.099958 286.598996,163.703538 286.211457,162.828202 L285.937798,162.208254 C285.552169,161.332075 285.948589,160.309089 286.823925,159.921549 L297.888434,155.037405 C298.764613,154.651776 299.787599,155.048196 300.175139,155.923532 L300.448798,156.54348 C300.834427,157.419659 300.438006,158.442646 299.562671,158.830185 L299.562671,158.830185 Z" id="路径" fill="#CCCCCC"></path>
            <path d="M308.095428,188.181127 L283.428197,168.721012 C283.231713,168.790127 283.031808,168.849099 282.829272,168.897694 C281.068494,169.309562 279.215644,168.954155 277.732237,167.92 C276.238476,166.884771 275.26381,165.255561 275.057983,163.449832 C274.717419,160.512075 276.443094,157.726151 279.225035,156.722555 C280.930771,156.110724 282.816494,156.255519 284.408827,157.12059 C286.00116,157.985661 287.148897,159.488863 287.563919,161.252844 C287.627467,161.529231 287.671698,161.809707 287.696289,162.092237 L312.252023,176.258329 L318.362879,172.740162 L325.132202,181.60259 L315.644306,188.365145 C313.363425,189.977408 310.295034,189.902608 308.095422,188.181121 L308.095428,188.181127 Z" id="路径" fill="#FFB8B8"></path>
            <path d="M328.142197,184.362538 L314.067809,174.791798 L320.682191,165.423671 C322.495547,162.855386 325.895374,161.966901 328.733416,163.319624 L328.733416,163.319624 C331.606531,164.689053 333.052829,167.948175 332.14059,170.997428 L328.142197,184.362538 Z" id="路径" fill="#00BFA6"></path>
            <path d="M329.705936,137.956659 C326.056971,140.454064 321.265792,143.021249 317.538936,140.361717 C315.091815,138.615422 314.320803,135.381688 315.313156,132.543879 C317.097699,127.440659 322.000688,125.193988 326.689179,123.471861 C332.784214,121.233104 339.420815,119.452069 345.712948,121.055358 C352.005081,122.658647 357.565896,128.750688 356.430046,135.143757 C355.516624,140.284931 350.66704,144.562786 351.35548,149.73889 C352.048353,154.948225 357.906803,157.690272 363.078884,158.621306 C368.250965,159.552341 374.038647,159.851491 377.755613,163.566509 C382.497289,168.305699 381.313214,176.77648 376.851486,181.780121 C372.389757,186.783763 365.656786,189.051861 359.132526,190.593746 C350.488283,192.636647 341.138855,193.710283 332.929006,190.319884 C324.719156,186.929486 318.330364,177.802931 320.708624,169.244879 C321.713197,165.629965 324.079671,162.574879 326.36674,159.600653 C328.653809,156.626428 330.969688,153.51626 331.842104,149.867197 C332.56911,146.826312 332.031017,143.295699 330.014462,141.014688 C329.261987,140.195595 329.123229,138.984845 329.670884,138.016751 L329.705936,137.956659 Z" id="路径" fill="#2F2E41"></path>
            <path d="M63.0475087,206.935514 C55.6074384,209.550781 47.3419729,208.094783 41.2433931,203.094624 C33.6063988,196.684694 31.2119711,186.12437 29.263711,176.346069 C27.3428555,166.705295 25.4219981,157.064524 23.5011387,147.423757 L35.5656821,155.730948 C44.2417803,161.704983 53.1133353,167.870405 59.1206358,176.523503 C65.1279364,185.176601 67.7501156,196.988855 62.9234393,206.351913" id="路径" fill="#E6E6E6"></path>
            <path d="M62.016237,241.951994 C63.2373295,233.057514 64.4929306,224.048786 63.6363988,215.058965 C62.8757052,207.07504 60.4399364,199.276983 55.4810116,192.88311 C52.8488055,189.495691 49.6459264,186.593348 46.0163642,184.306561 C45.0698902,183.709156 44.1987803,185.209104 45.1411272,185.803913 C51.4213234,189.773003 56.2788274,195.633939 59.0132948,202.541705 C62.0334566,210.22348 62.5184509,218.597266 61.9980058,226.757526 C61.6832717,231.692341 61.0162312,236.594815 60.344052,241.491 C60.2341029,241.950448 60.4987534,242.41656 60.9496358,242.557578 C61.4110159,242.681899 61.886548,242.411901 62.0162139,241.951994 L62.016237,241.951994 Z" id="路径" fill="#F2F2F2"></path>
            <path d="M50.2549133,226.212965 C47.0640004,231.062708 41.5739952,233.896226 35.7724046,233.687723 C28.4411098,233.339699 22.3291445,228.222913 16.8272312,223.365139 L0.553653179,208.996809 L11.3240636,208.481376 C19.0695029,208.110705 27.0147688,207.764954 34.3920347,210.153503 C41.7693006,212.542052 48.573,218.290439 49.9219769,225.926509" id="路径" fill="#E6E6E6"></path>
            <path d="M65.4671272,247.065012 C59.5898266,236.665503 52.7726705,225.10763 40.5915607,221.413566 C37.2046037,220.389898 33.6531677,220.0232 30.1285029,220.33322 C29.0176358,220.429006 29.2950289,222.141376 30.4038786,222.045763 C36.3119881,221.555227 42.208699,223.115282 47.1012717,226.463283 C51.8093064,229.667908 55.4750231,234.123202 58.5776532,238.847827 C60.4781098,241.741798 62.1804162,244.758549 63.8830462,247.771254 C64.4271734,248.734046 66.0176069,248.039052 65.4671272,247.065006 L65.4671272,247.065012 Z" id="路径" fill="#F2F2F2"></path>
            <path d="M74.884237,258.011266 C74.4806009,253.334017 71.5073469,249.270179 67.1716763,247.469751 L67.1716763,241.457613 L57.0879364,241.457613 L57.0879364,247.659208 C52.9708996,249.54566 50.1856063,253.499462 49.7953295,258.011266 L47.4242312,285.574035 L77.2553931,285.574035 L74.884237,258.011266 Z" id="路径" fill="#F2F2F2"></path>
        </g>
    </g>
</svg>