<?xml version="1.0" encoding="UTF-8"?>
<svg width="132px" height="44px" viewBox="0 0 132 44" version="1.1" xmlns="http://www.w3.org/2000/svg" xmlns:xlink="http://www.w3.org/1999/xlink">
    <title>download</title>
    <g id="页面-1" stroke="none" stroke-width="1" fill="none" fill-rule="evenodd">
        <g id="编组" transform="translate(0.000000, -0.000143)">
            <g id="路径" fill-rule="nonzero">
                <path d="M121.148247,1.33649602e-15 L10.488148,1.33649602e-15 C10.084778,1.33649602e-15 9.686248,1.33649602e-15 9.283945,0.002343 C8.94718,0.004543 8.613099,0.010934 8.2731,0.016313 C7.53446505,0.025004984 6.79756712,0.0899868859 6.06881,0.210694 C5.34107649,0.334028891 4.63613977,0.566550314 3.977842,0.900394 C3.32034935,1.23706188 2.71957952,1.67452728 2.197327,2.19692 C1.67233275,2.71784369 1.2347095,3.31996102 0.901285,3.980119 C0.566940266,4.63896303 0.335104548,5.34497513 0.213785,6.073771 C0.0913120353,6.8016464 0.0254082187,7.5379156 0.016665,8.275971 C0.006457,8.613231 0.005379,8.951613 0,9.288917 L0,34.714603 C0.005379,35.056153 0.006457,35.387033 0.016665,35.728693 C0.0254108998,36.4667118 0.0913147175,37.2029442 0.213785,37.930783 C0.334769548,38.6600049 0.566618974,39.3664223 0.901285,40.025513 C1.23455811,40.6835362 1.67224289,41.2832158 2.197327,41.801243 C2.7175993,42.3259585 3.31875746,42.7637215 3.977842,43.097813 C4.63613477,43.4325502 5.34099549,43.6664556 6.06881,43.791693 C6.79769101,43.9114332 7.53451315,43.9764415 8.2731,43.986173 C8.613099,43.993653 8.94718,43.997943 9.283945,43.997943 C9.686237,44.000143 10.0848,44.000143 10.488148,44.000143 L121.148247,44.000143 C121.543587,44.000143 121.945307,44.000143 122.340647,43.997943 C122.675817,43.997943 123.019567,43.993653 123.354737,43.986173 C124.091927,43.9769591 124.827362,43.9119466 125.554737,43.791693 C126.284899,43.665574 126.992287,43.4317305 127.653757,43.097813 C128.312247,42.7635281 128.91285,42.325777 129.432677,41.801243 C129.956406,41.281187 130.395026,40.681946 130.732437,40.025513 C131.064592,39.3659428 131.294234,38.6595819 131.413447,37.930783 C131.536113,37.2028444 131.604356,36.4667757 131.617607,35.728693 C131.621897,35.387033 131.621897,35.056153 131.621897,34.714603 C131.630477,34.314973 131.630477,33.917543 131.630477,33.511423 L131.630477,10.489886 C131.630477,10.087055 131.630477,9.687447 131.621897,9.288917 C131.621897,8.951613 131.621897,8.613231 131.617607,8.275927 C131.604358,7.53780769 131.536116,6.80170224 131.413447,6.073727 C131.293902,5.34535276 131.064273,4.6393966 130.732437,3.980075 C130.053434,2.65685869 128.976731,1.57977094 127.653757,0.900295 C126.992285,0.567267118 126.284822,0.334807451 125.554737,0.210595 C124.827488,0.0893560615 124.091977,0.0243515414 123.354737,0.016159 C123.019567,0.010791 122.675817,0.004345 122.340647,0.0022 C121.945307,1.33649602e-15 121.543587,1.33649602e-15 121.148247,1.33649602e-15 L121.148247,1.33649602e-15 Z" fill="#A6A6A6"></path>
                <path d="M9.289313,43.037643 C8.954165,43.037643 8.627113,43.033353 8.294594,43.025873 C7.60575395,43.0168978 6.91852389,42.9569305 6.23854,42.846463 C5.60448933,42.737264 4.99026467,42.5341339 4.416126,42.243773 C3.84725187,41.9558179 3.32839294,41.5782431 2.879426,41.125513 C2.42396036,40.6781158 2.04476441,40.1592114 1.756865,39.589363 C1.46579319,39.0158111 1.26435417,38.4010325 1.159565,37.766443 C1.04640179,37.0845694 0.985175811,36.3950876 0.976415,35.703943 C0.969441,35.471953 0.960311,34.699533 0.960311,34.699533 L0.960311,9.288917 C0.960311,9.288917 0.970035,8.528366 0.97647,8.304923 C0.984858409,7.61487325 1.04572836,6.92646141 1.158553,6.245646 C1.2635356,5.60931809 1.46513056,4.99276675 1.756359,4.417336 C2.04320031,3.84788123 2.42029104,3.32858932 2.873013,2.879591 C3.32522611,2.42632656 3.84574477,2.04680753 4.415587,1.754874 C4.98840613,1.46544596 5.60146999,1.2637488 6.234239,1.15654 C6.91645607,1.04496275 7.60607192,0.984638693 8.2973,0.976074 L9.289852,0.962643 L122.335257,0.962643 L123.339667,0.976613 C124.024608,0.984752117 124.707959,1.04453801 125.383907,1.155462 C126.023082,1.26401557 126.642535,1.46712009 127.221897,1.758097 C128.363497,2.34642765 129.292396,3.27722224 129.878397,4.42002 C130.164977,4.99147832 130.363462,5.60300043 130.467117,6.233832 C130.581285,6.92023352 130.645182,7.61405517 130.658297,8.309763 C130.661487,8.621283 130.661487,8.955903 130.661487,9.288917 C130.670177,9.701417 130.670177,10.09404 130.670177,10.489886 L130.670177,33.511423 C130.670177,33.911053 130.670177,34.301003 130.661487,34.694143 C130.661487,35.051863 130.661487,35.379553 130.657197,35.716813 C130.644366,36.4001062 130.581534,37.0815437 130.469207,37.755663 C130.366566,38.3948303 130.166223,39.0144074 129.875207,39.592663 C129.585272,40.1563262 129.208254,40.6707358 128.758047,41.116933 C128.308676,41.5720961 127.788902,41.95188 127.218707,42.241683 C126.64095,42.534276 126.022408,42.7381573 125.383907,42.846463 C124.703975,42.9575201 124.016679,43.0174912 123.327787,43.025873 C123.005597,43.033353 122.668227,43.037643 122.340647,43.037643 L121.148247,43.039843 L9.289313,43.037643 Z" fill="#000000"></path>
            </g>
            <text id="Open" font-family="PingFangSC-Semibold, PingFang SC" font-size="24" font-weight="500" letter-spacing="3.33399996" fill="#FFFFFF">
                <tspan x="27" y="31">Open</tspan>
            </text>
        </g>
    </g>
</svg>